<?xml version="1.0" encoding="UTF-8" standalone="no"?>
<!DOCTYPE svg PUBLIC "-//W3C//DTD SVG 1.1//EN" "http://www.w3.org/Graphics/SVG/1.1/DTD/svg11.dtd">
<svg width="100%" height="100%" viewBox="0 0 300 300" version="1.1" xmlns="http://www.w3.org/2000/svg" xmlns:xlink="http://www.w3.org/1999/xlink" xml:space="preserve" xmlns:serif="http://www.serif.com/" style="fill-rule:evenodd;clip-rule:evenodd;stroke-linejoin:round;stroke-miterlimit:2;">
    <g id="svgstar">
        <clipPath id="_clip1">
            <path id="svgbar" d="M149.934,134.497l-42.702,42.703l-72.645,-72.645l42.702,-42.703l72.645,72.645Z"/>
        </clipPath>
        <g clip-path="url(#_clip1)">
            <path d="M101.706,107.555c0,-5.943 -2.363,-11.649 -6.565,-15.851c-8.696,-8.696 -23.007,-8.696 -31.703,-0c-8.696,8.695 -8.696,23.007 0,31.702c4.202,4.203 9.908,6.566 15.851,6.566l119.005,119.004c-0,5.943 2.363,11.649 6.565,15.852c8.696,8.695 23.007,8.695 31.703,-0c8.696,-8.696 8.696,-23.007 -0,-31.703c-4.202,-4.202 -9.908,-6.566 -15.851,-6.566l-119.005,-119.004Z" style="fill:#ff9b7d;fill-rule:nonzero;stroke:#000;stroke-width:12px;"/>
        </g>
        <clipPath id="_clip2">
            <path id="svgbar1" serif:id="svgbar" d="M187.996,181.393l-41.413,-41.413l74.128,-74.128l41.413,41.414l-74.128,74.127Z"/>
        </clipPath>
        <g clip-path="url(#_clip2)">
            <path d="M220.711,129.972c5.943,0 11.649,-2.363 15.851,-6.566c8.696,-8.695 8.696,-23.007 -0,-31.702c-8.696,-8.696 -23.007,-8.696 -31.703,-0c-4.202,4.202 -6.565,9.908 -6.565,15.851l-119.005,119.004c-5.943,0 -11.649,2.364 -15.851,6.566c-8.696,8.696 -8.696,23.007 0,31.703c8.696,8.695 23.007,8.695 31.703,-0c4.202,-4.203 6.565,-9.909 6.565,-15.852l119.005,-119.004Z" style="fill:#ff9b7d;fill-rule:nonzero;stroke:#000;stroke-width:12px;"/>
        </g>
        <path id="svgbar2" serif:id="svgbar" d="M65.851,162.414c-4.202,-4.202 -9.908,-6.565 -15.851,-6.565c-12.298,-0 -22.417,10.119 -22.417,22.417c-0,12.297 10.119,22.417 22.417,22.417c5.943,-0 11.649,-2.364 15.851,-6.566l168.298,-0c4.202,4.202 9.908,6.566 15.851,6.566c12.298,-0 22.417,-10.12 22.417,-22.417c0,-12.298 -10.119,-22.417 -22.417,-22.417c-5.943,-0 -11.649,2.363 -15.851,6.565l-168.298,0Z" style="fill:#ff9b7d;fill-rule:nonzero;stroke:#000;stroke-width:12px;"/>
        <clipPath id="_clip3">
            <path id="svgbar3" serif:id="svgbar" d="M180.417,167.683l-59.834,-0l-0,-120.834l59.834,-0l0,120.834Z"/>
        </clipPath>
        <g clip-path="url(#_clip3)">
            <path d="M165.851,94.117c4.203,-4.202 6.566,-9.908 6.566,-15.851c0,-12.298 -10.119,-22.417 -22.417,-22.417c-12.298,-0 -22.417,10.119 -22.417,22.417c-0,5.943 2.363,11.649 6.566,15.851l-0,168.297c-4.203,4.203 -6.566,9.909 -6.566,15.852c-0,12.297 10.119,22.417 22.417,22.417c12.298,-0 22.417,-10.12 22.417,-22.417c0,-5.943 -2.363,-11.649 -6.566,-15.852l0,-168.297Z" style="fill:#ff9b7d;fill-rule:nonzero;stroke:#000;stroke-width:12px;"/>
        </g>
    </g>
    <g>
        <path d="M150,193.043l-39.316,-64.198l78.632,0l-39.316,64.198Z" style="fill:#c2628d;fill-opacity:0.9;fill-rule:nonzero;stroke:#000;stroke-width:1.07px;stroke-miterlimit:4;"/>
        <path d="M150,193.043l-63.735,6.982l24.419,-71.18l39.316,64.198Z" style="fill:#a31453;fill-opacity:0.9;fill-rule:nonzero;stroke:#000;stroke-width:1.07px;stroke-miterlimit:4;"/>
        <path d="M150,193.043l39.316,-64.198l24.419,71.18l-63.735,-6.982Z" style="fill:#ca779c;fill-opacity:0.9;fill-rule:nonzero;stroke:#000;stroke-width:1.07px;stroke-miterlimit:4;"/>
        <path d="M150,193.043l63.735,6.982l-63.735,44.126l0,-51.108Z" style="fill:#b0366c;fill-opacity:0.9;fill-rule:nonzero;stroke:#000;stroke-width:1.07px;stroke-miterlimit:4;"/>
        <path d="M150,193.043l0,51.108l-63.735,-44.126l63.735,-6.982Z" style="fill:#98003f;fill-opacity:0.9;fill-rule:nonzero;stroke:#000;stroke-width:1.07px;stroke-miterlimit:4;"/>
        <path d="M189.316,128.845l-78.632,0l39.316,-33.18l39.316,33.18Z" style="fill:#dca5be;fill-opacity:0.9;fill-rule:nonzero;stroke:#000;stroke-width:1.07px;stroke-miterlimit:4;"/>
        <path d="M86.265,200.025l-0.265,-60.224l24.684,-10.956l-24.419,71.18Z" style="fill:#aa2661;fill-opacity:0.9;fill-rule:nonzero;stroke:#000;stroke-width:1.07px;stroke-miterlimit:4;"/>
        <path d="M214,139.801l-0.265,60.224l-24.419,-71.18l24.684,10.956Z" style="fill:#e9c7d6;fill-opacity:0.9;fill-rule:nonzero;stroke:#000;stroke-width:1.07px;stroke-miterlimit:4;"/>
        <path d="M214,139.801l-24.684,-10.956l-39.316,-33.18l64,44.136Z" style="fill:#f4e4eb;fill-opacity:0.9;fill-rule:nonzero;stroke:#000;stroke-width:1.07px;stroke-miterlimit:4;"/>
        <path d="M86,139.801l64,-44.136l-39.316,33.18l-24.684,10.956Z" style="fill:#cd80a2;fill-opacity:0.9;fill-rule:nonzero;stroke:#000;stroke-width:1.07px;stroke-miterlimit:4;"/>
        <path d="M213.735,200.025l-24.106,11.409l-39.629,32.717l63.735,-44.126Z" style="fill:#c05d89;fill-opacity:0.9;fill-rule:nonzero;stroke:#000;stroke-width:1.07px;stroke-miterlimit:4;"/>
        <path d="M86.265,200.025l63.735,44.126l-39.629,-32.717l-24.106,-11.409Z" style="fill:#990040;fill-opacity:0.9;fill-rule:nonzero;stroke:#000;stroke-width:1.07px;stroke-miterlimit:4;"/>
        <path d="M214,139.801l-24.371,71.633l24.106,-11.409l0.265,-60.224Z" style="fill:#e3b7ca;fill-opacity:0.9;fill-rule:nonzero;stroke:#000;stroke-width:1.07px;stroke-miterlimit:4;"/>
        <path d="M86.265,200.025l24.106,11.409l-24.371,-71.633l0.265,60.224Z" style="fill:#a41655;fill-opacity:0.9;fill-rule:nonzero;stroke:#000;stroke-width:1.07px;stroke-miterlimit:4;"/>
        <path d="M110.371,211.434l39.629,32.717l39.629,-32.717l-79.258,0Z" style="fill:#b1386d;fill-opacity:0.9;fill-rule:nonzero;stroke:#000;stroke-width:1.07px;stroke-miterlimit:4;"/>
        <path d="M150,146.639l64,-6.838l-64,-44.136l0,50.974Z" style="fill:#f5e5ec;fill-opacity:0.9;fill-rule:nonzero;stroke:#000;stroke-width:1.07px;stroke-miterlimit:4;"/>
        <path d="M150,146.639l0,-50.974l-64,44.136l64,6.838Z" style="fill:#dda7bf;fill-opacity:0.9;fill-rule:nonzero;stroke:#000;stroke-width:1.07px;stroke-miterlimit:4;"/>
        <path d="M150,146.639l-64,-6.838l24.371,71.633l39.629,-64.795Z" style="fill:#c3668f;fill-opacity:0.9;fill-rule:nonzero;stroke:#000;stroke-width:1.07px;stroke-miterlimit:4;"/>
        <path d="M150,146.639l39.629,64.795l24.371,-71.633l-64,6.838Z" style="fill:#eac9d8;fill-opacity:0.9;fill-rule:nonzero;stroke:#000;stroke-width:1.07px;stroke-miterlimit:4;"/>
        <path d="M150,146.639l-39.629,64.795l79.258,0l-39.629,-64.795Z" style="fill:#cb7b9e;fill-opacity:0.9;fill-rule:nonzero;stroke:#000;stroke-width:1.07px;stroke-miterlimit:4;"/>
    </g>
</svg>
