<?xml version="1.0" encoding="UTF-8" standalone="no"?>
<!DOCTYPE svg PUBLIC "-//W3C//DTD SVG 1.1//EN" "http://www.w3.org/Graphics/SVG/1.1/DTD/svg11.dtd">
<svg width="100%" height="100%" viewBox="0 0 512 512" version="1.1" xmlns="http://www.w3.org/2000/svg" xmlns:xlink="http://www.w3.org/1999/xlink" xml:space="preserve" xmlns:serif="http://www.serif.com/" style="fill-rule:evenodd;clip-rule:evenodd;stroke-linejoin:round;">
    <g>
        <path d="M177.109,342.612l194.453,-143.593l-3.057,12.358l-184.963,157.131l-6.433,-25.896Z" style="fill:#21084d;fill-opacity:0.85;fill-rule:nonzero;stroke:#000;stroke-width:0.26px;"/>
        <path d="M173.638,319.328l200.38,-134.876l-2.456,14.567l-194.453,143.593l-3.471,-23.284Z" style="fill:#22094d;fill-opacity:0.85;fill-rule:nonzero;stroke:#000;stroke-width:0.26px;"/>
        <path d="M183.542,368.508l184.963,-157.131l-3.184,10.092l-171.544,174.657l-10.235,-27.618Z" style="fill:#22094d;fill-opacity:0.85;fill-rule:nonzero;stroke:#000;stroke-width:0.26px;"/>
        <path d="M172.365,299.049l202.957,-131.242l-1.304,16.645l-200.38,134.876l-1.273,-20.279Z" style="fill:#240c4f;fill-opacity:0.85;fill-rule:nonzero;stroke:#000;stroke-width:0.26px;"/>
        <path d="M193.777,396.126l171.544,-174.657l-2.888,7.757l-153.765,194.616l-14.891,-27.716Z" style="fill:#250c50;fill-opacity:0.85;fill-rule:nonzero;stroke:#000;stroke-width:0.26px;"/>
        <path d="M172.625,281.838l202.225,-132.476l0.472,18.445l-202.957,131.242l0.26,-17.211Z" style="fill:#281052;fill-opacity:0.85;fill-rule:nonzero;stroke:#000;stroke-width:0.26px;"/>
        <path d="M173.863,267.564l198.068,-137.953l2.919,19.751l-202.225,132.476l1.238,-14.274Z" style="fill:#2c1556;fill-opacity:0.85;fill-rule:nonzero;stroke:#000;stroke-width:0.26px;"/>
        <path d="M208.668,423.842l153.765,-194.616l-2.172,5.228l-131.238,214.502l-20.355,-25.114Z" style="fill:#2b1354;fill-opacity:0.85;fill-rule:nonzero;stroke:#000;stroke-width:0.26px;"/>
        <path d="M175.635,255.988l190.274,-146.67l6.022,20.293l-198.068,137.953l1.772,-11.576Z" style="fill:#311a5a;fill-opacity:0.85;fill-rule:nonzero;stroke:#000;stroke-width:0.26px;"/>
        <path d="M177.594,246.826l178.647,-157.297l9.668,19.789l-190.274,146.67l1.959,-9.162Z" style="fill:#36205e;fill-opacity:0.85;fill-rule:nonzero;stroke:#000;stroke-width:0.26px;"/>
        <path d="M229.023,448.956l131.238,-214.502l-0.921,2.09l-103.34,230.601l-26.977,-18.189Z" style="fill:#331d5b;fill-opacity:0.85;fill-rule:nonzero;stroke:#000;stroke-width:0.26px;"/>
        <path d="M179.479,239.793l163.138,-168.258l13.624,17.994l-178.647,157.297l1.885,-7.033Z" style="fill:#3b2562;fill-opacity:0.85;fill-rule:nonzero;stroke:#000;stroke-width:0.26px;"/>
        <path d="M181.101,234.631l143.985,-177.888l17.531,14.792l-163.138,168.258l1.622,-5.162Z" style="fill:#402a65;fill-opacity:0.85;fill-rule:nonzero;stroke:#000;stroke-width:0.26px;"/>
        <path d="M256,467.145l103.34,-230.601l0.921,-2.09l-77.148,236.051l-27.113,-3.36Z" style="fill:#402a65;fill-opacity:0.85;fill-rule:nonzero;stroke:#000;stroke-width:0.26px;"/>
        <path d="M182.332,231.121l121.799,-184.639l20.955,10.261l-143.985,177.888l1.231,-3.51Z" style="fill:#442f68;fill-opacity:0.85;fill-rule:nonzero;stroke:#000;stroke-width:0.26px;"/>
        <path d="M283.113,470.505l77.148,-236.051l2.172,-5.228l-58.68,232.346l-20.64,8.933Z" style="fill:#5b487b;fill-opacity:0.85;fill-rule:nonzero;stroke:#000;stroke-width:0.26px;"/>
        <path d="M183.094,229.095l97.586,-187.313l23.451,4.7l-121.799,184.639l0.762,-2.026Z" style="fill:#47326b;fill-opacity:0.85;fill-rule:nonzero;stroke:#000;stroke-width:0.26px;"/>
        <path d="M193.777,396.126l-48.215,-133.426l-3.251,-8.985l41.231,114.793l10.235,27.618Z" style="fill:#301959;fill-opacity:0.85;fill-rule:nonzero;stroke:#000;stroke-width:0.26px;"/>
        <path d="M183.542,368.508l-41.231,-114.793l-3.123,-11.329l37.921,100.226l6.433,25.896Z" style="fill:#2f1858;fill-opacity:0.85;fill-rule:nonzero;stroke:#000;stroke-width:0.26px;"/>
        <path d="M183.35,228.437l72.65,-185.281l24.68,-1.374l-97.586,187.313l0.256,-0.658Z" style="fill:#49346c;fill-opacity:0.85;fill-rule:nonzero;stroke:#000;stroke-width:0.26px;"/>
        <path d="M177.109,342.612l-37.921,-100.226l-2.51,-13.796l36.96,90.738l3.471,23.284Z" style="fill:#301959;fill-opacity:0.85;fill-rule:nonzero;stroke:#000;stroke-width:0.26px;"/>
        <path d="M208.668,423.842l-60.161,-154.408l-2.945,-6.734l48.215,133.426l14.891,27.716Z" style="fill:#341d5c;fill-opacity:0.85;fill-rule:nonzero;stroke:#000;stroke-width:0.26px;"/>
        <path d="M303.753,461.572l58.68,-232.346l2.888,-7.757l-46.368,224.072l-15.2,16.031Z" style="fill:#6a5987;fill-opacity:0.85;fill-rule:nonzero;stroke:#000;stroke-width:0.26px;"/>
        <path d="M173.638,319.328l-36.96,-90.738l-1.333,-16.337l37.02,86.796l1.273,20.279Z" style="fill:#321b5a;fill-opacity:0.85;fill-rule:nonzero;stroke:#000;stroke-width:0.26px;"/>
        <path d="M183.094,229.095l48.17,-178.49l24.736,-7.449l-72.65,185.281l-0.256,0.658Z" style="fill:#49356d;fill-opacity:0.85;fill-rule:nonzero;stroke:#000;stroke-width:0.26px;"/>
        <path d="M229.023,448.956l-78.3,-175.071l-2.216,-4.451l60.161,154.408l20.355,25.114Z" style="fill:#392360;fill-opacity:0.85;fill-rule:nonzero;stroke:#000;stroke-width:0.26px;"/>
        <path d="M172.365,299.049l-37.02,-86.796l0.483,-18.828l36.797,88.413l-0.26,17.211Z" style="fill:#351e5c;fill-opacity:0.85;fill-rule:nonzero;stroke:#000;stroke-width:0.26px;"/>
        <path d="M172.625,281.838l-36.797,-88.413l2.983,-21.06l35.052,95.199l-1.238,14.274Z" style="fill:#38225f;fill-opacity:0.85;fill-rule:nonzero;stroke:#000;stroke-width:0.26px;"/>
        <path d="M318.953,445.541l46.368,-224.072l3.184,-10.092l-39.054,214.406l-10.498,19.758Z" style="fill:#796a93;fill-opacity:0.85;fill-rule:nonzero;stroke:#000;stroke-width:0.26px;"/>
        <path d="M182.332,231.121l25.322,-167.372l23.61,-13.144l-48.17,178.49l-0.762,2.026Z" style="fill:#49356d;fill-opacity:0.85;fill-rule:nonzero;stroke:#000;stroke-width:0.26px;"/>
        <path d="M173.863,267.564l-35.052,-95.199l6.15,-22.744l30.674,106.367l-1.772,11.576Z" style="fill:#3c2662;fill-opacity:0.85;fill-rule:nonzero;stroke:#000;stroke-width:0.26px;"/>
        <path d="M181.101,234.631l5.368,-152.99l21.185,-17.892l-25.322,167.372l-1.231,3.51Z" style="fill:#48346c;fill-opacity:0.85;fill-rule:nonzero;stroke:#000;stroke-width:0.26px;"/>
        <path d="M175.635,255.988l-30.674,-106.367l9.859,-23.553l22.774,120.758l-1.959,9.162Z" style="fill:#402a65;fill-opacity:0.85;fill-rule:nonzero;stroke:#000;stroke-width:0.26px;"/>
        <path d="M256,467.145l-104.338,-191.502l-0.939,-1.758l78.3,175.071l26.977,18.189Z" style="fill:#120040;fill-opacity:0.85;fill-rule:nonzero;stroke:#000;stroke-width:0.26px;"/>
        <path d="M179.479,239.793l-10.797,-136.87l17.787,-21.282l-5.368,152.99l-1.622,5.162Z" style="fill:#46316a;fill-opacity:0.85;fill-rule:nonzero;stroke:#000;stroke-width:0.26px;"/>
        <path d="M177.594,246.826l-22.774,-120.758l13.862,-23.145l10.797,136.87l-1.885,7.033Z" style="fill:#432e68;fill-opacity:0.85;fill-rule:nonzero;stroke:#000;stroke-width:0.26px;"/>
        <path d="M329.451,425.783l39.054,-214.406l3.057,-12.358l-35.492,205.643l-6.619,21.121Z" style="fill:#887b9f;fill-opacity:0.85;fill-rule:nonzero;stroke:#000;stroke-width:0.26px;"/>
        <path d="M336.07,404.662l35.492,-205.643l2.456,-14.567l-34.371,199.336l-3.577,20.874Z" style="fill:#968bab;fill-opacity:0.85;fill-rule:nonzero;stroke:#000;stroke-width:0.26px;"/>
        <path d="M339.647,383.788l34.371,-199.336l1.304,-16.645l-34.362,196.392l-1.313,19.589Z" style="fill:#a499b6;fill-opacity:0.85;fill-rule:nonzero;stroke:#000;stroke-width:0.26px;"/>
        <path d="M283.113,470.505l-132.39,-196.62l0.939,1.758l104.338,191.502l27.113,3.36Z" style="fill:#5a487b;fill-opacity:0.85;fill-rule:nonzero;stroke:#000;stroke-width:0.26px;"/>
        <path d="M340.96,364.199l34.362,-196.392l-0.472,-18.445l-34.157,197.149l0.267,17.688Z" style="fill:#b0a8c0;fill-opacity:0.85;fill-rule:nonzero;stroke:#000;stroke-width:0.26px;"/>
        <path d="M340.693,346.511l34.157,-197.149l-2.919,-19.751l-32.516,201.429l1.278,15.471Z" style="fill:#bcb4c9;fill-opacity:0.85;fill-rule:nonzero;stroke:#000;stroke-width:0.26px;"/>
        <path d="M339.415,331.04l32.516,-201.429l-6.022,-20.293l-28.321,208.579l1.827,13.143Z" style="fill:#c7c0d2;fill-opacity:0.85;fill-rule:nonzero;stroke:#000;stroke-width:0.26px;"/>
        <path d="M337.588,317.897l28.321,-208.579l-9.668,-19.789l-20.671,217.538l2.018,10.83Z" style="fill:#d0cbd9;fill-opacity:0.85;fill-rule:nonzero;stroke:#000;stroke-width:0.26px;"/>
        <path d="M303.753,461.572l-155.246,-192.138l2.216,4.451l132.39,196.62l20.64,-8.933Z" style="fill:#695886;fill-opacity:0.85;fill-rule:nonzero;stroke:#000;stroke-width:0.26px;"/>
        <path d="M335.57,307.067l20.671,-217.538l-13.624,-17.994l-8.988,226.929l1.941,8.603Z" style="fill:#d9d5e0;fill-opacity:0.85;fill-rule:nonzero;stroke:#000;stroke-width:0.26px;"/>
        <path d="M333.629,298.464l8.988,-226.929l-17.531,-14.792l6.874,235.224l1.669,6.497Z" style="fill:#e0dde6;fill-opacity:0.85;fill-rule:nonzero;stroke:#000;stroke-width:0.26px;"/>
        <path d="M318.953,445.541l-173.391,-182.841l2.945,6.734l155.246,192.138l15.2,-16.031Z" style="fill:#786993;fill-opacity:0.85;fill-rule:nonzero;stroke:#000;stroke-width:0.26px;"/>
        <path d="M331.96,291.967l-6.874,-235.224l-20.955,-10.261l26.563,240.97l1.266,4.515Z" style="fill:#e6e3eb;fill-opacity:0.85;fill-rule:nonzero;stroke:#000;stroke-width:0.26px;"/>
        <path d="M329.451,425.783l-187.14,-172.068l3.251,8.985l173.391,182.841l10.498,-19.758Z" style="fill:#887a9f;fill-opacity:0.85;fill-rule:nonzero;stroke:#000;stroke-width:0.26px;"/>
        <path d="M330.694,287.452l-26.563,-240.97l-23.451,-4.7l49.231,243.026l0.783,2.644Z" style="fill:#eae8ee;fill-opacity:0.85;fill-rule:nonzero;stroke:#000;stroke-width:0.26px;"/>
        <path d="M329.911,284.808l-49.231,-243.026l-24.68,1.374l73.648,240.786l0.263,0.866Z" style="fill:#edebf0;fill-opacity:0.85;fill-rule:nonzero;stroke:#000;stroke-width:0.26px;"/>
        <path d="M336.07,404.662l-196.882,-162.276l3.123,11.329l187.14,172.068l6.619,-21.121Z" style="fill:#968bab;fill-opacity:0.85;fill-rule:nonzero;stroke:#000;stroke-width:0.26px;"/>
        <path d="M329.648,283.942l-73.648,-240.786l-24.736,7.449l98.647,234.203l-0.263,-0.866Z" style="fill:#eeecf1;fill-opacity:0.85;fill-rule:nonzero;stroke:#000;stroke-width:0.26px;"/>
        <path d="M339.647,383.788l-202.969,-155.198l2.51,13.796l196.882,162.276l3.577,-20.874Z" style="fill:#a49ab6;fill-opacity:0.85;fill-rule:nonzero;stroke:#000;stroke-width:0.26px;"/>
        <path d="M329.911,284.808l-98.647,-234.203l-23.61,13.144l123.04,223.703l-0.783,-2.644Z" style="fill:#edebf0;fill-opacity:0.85;fill-rule:nonzero;stroke:#000;stroke-width:0.26px;"/>
        <path d="M340.96,364.199l-205.615,-151.946l1.333,16.337l202.969,155.198l1.313,-19.589Z" style="fill:#b1a8c0;fill-opacity:0.85;fill-rule:nonzero;stroke:#000;stroke-width:0.26px;"/>
        <path d="M330.694,287.452l-123.04,-223.703l-21.185,17.892l145.491,210.326l-1.266,-4.515Z" style="fill:#eae8ee;fill-opacity:0.85;fill-rule:nonzero;stroke:#000;stroke-width:0.26px;"/>
        <path d="M340.693,346.511l-204.865,-153.086l-0.483,18.828l205.615,151.946l-0.267,-17.688Z" style="fill:#bdb5ca;fill-opacity:0.85;fill-rule:nonzero;stroke:#000;stroke-width:0.26px;"/>
        <path d="M331.96,291.967l-145.491,-210.326l-17.787,21.282l164.947,195.541l-1.669,-6.497Z" style="fill:#e6e4eb;fill-opacity:0.85;fill-rule:nonzero;stroke:#000;stroke-width:0.26px;"/>
        <path d="M339.415,331.04l-200.604,-158.675l-2.983,21.06l204.865,153.086l-1.278,-15.471Z" style="fill:#c8c1d2;fill-opacity:0.85;fill-rule:nonzero;stroke:#000;stroke-width:0.26px;"/>
        <path d="M333.629,298.464l-164.947,-195.541l-13.862,23.145l180.75,180.999l-1.941,-8.603Z" style="fill:#e1dde7;fill-opacity:0.85;fill-rule:nonzero;stroke:#000;stroke-width:0.26px;"/>
        <path d="M337.588,317.897l-192.627,-168.276l-6.15,22.744l200.604,158.675l-1.827,-13.143Z" style="fill:#d1ccda;fill-opacity:0.85;fill-rule:nonzero;stroke:#000;stroke-width:0.26px;"/>
        <path d="M335.57,307.067l-180.75,-180.999l-9.859,23.553l192.627,168.276l-2.018,-10.83Z" style="fill:#dad5e1;fill-opacity:0.85;fill-rule:nonzero;stroke:#000;stroke-width:0.26px;"/>
    </g>
</svg>
