<?xml version="1.0" encoding="utf-8" ?>
<svg baseProfile="full" height="512" version="1.1" viewBox="-0.5 -0.5 1.0 1.0" width="512" xmlns="http://www.w3.org/2000/svg" xmlns:ev="http://www.w3.org/2001/xml-events" xmlns:xlink="http://www.w3.org/1999/xlink"><defs><clipPath id="id1"><rect height="1.0" width="1.0" x="-0.5" y="-0.5" /></clipPath></defs><g clip-path="url(#id1)"><polygon fill="#13385A" points="0.07758661983212,-0.07215771316178 0.06970827219953,-0.07799818287905 0.06344772202998,-0.07832387429326 0.06445376614848,-0.06410097708082 0.07981348917478,-0.0620079293423" /></g><g clip-path="url(#id1)"><polygon fill="#6B5F76" points="-0.16215253364507,0.05218661054417 -0.17026753567341,0.07483567018111 -0.12920073629242,0.06980069303424 -0.13474159971356,0.06269536090994" /></g><g clip-path="url(#id1)"><polygon fill="#8E616C" points="0.16017259791997,-0.01503974505308 0.12864034263653,-0.02049464407261 0.12783268531142,-0.00225773473615 0.14942067775678,0.00307503106153 0.16397623131357,-0.00661667342754" /></g><g clip-path="url(#id1)"><polygon fill="#E57C62" points="-0.06476717974389,0.01699279219999 -0.07008387323686,0.00946592983097 -0.08194698203028,0.00366027013783 -0.12124069787251,0.02310718973737 -0.12402789825796,0.02524831353768 -0.09228135866497,0.0526518579407 -0.08756738432789,0.05194957319414 -0.05795322876689,0.03686920455116" /></g><g clip-path="url(#id1)"><polygon fill="#E57C62" points="0.14942067775678,0.00307503106153 0.12783268531142,-0.00225773473615 0.1079309066309,-0.00493428756191 0.10773839135362,0.01116187052749 0.14146220992455,0.02599014140699 0.15059704010195,0.01864616943766" /></g><g clip-path="url(#id1)"><polygon fill="#E9C99F" points="-0.01414221353397,-0.05530083054525 -0.03433440432979,-0.07030498101272 -0.05318620225606,-0.05965174635584 -0.04610583448225,-0.05262933112597 -0.03820807165432,-0.04677803359279 -0.01742066006017,-0.04515547999345" /></g><g clip-path="url(#id1)"><polygon fill="#E9C99F" points="0.19629977808181,0.04587338991096 0.19617934330939,0.04577009367543 0.18702663512777,0.04207720702573 0.1808642914992,0.04343368899668 0.18295934957454,0.05698089713739 0.19154859382439,0.06386936771235 0.19993375187976,0.05998044385242 0.20012837937581,0.05813098528699" /></g><g clip-path="url(#id1)"><polygon fill="#E9C99F" points="0.1808642914992,0.04343368899668 0.15690360765023,0.04187652100008 0.16884444738827,0.05308947486587 0.18295934957454,0.05698089713739" /></g><g clip-path="url(#id1)"><polygon fill="#E7A27A" points="-0.14141847875717,0.13522414999393 -0.18369746750401,0.12266114905572 -0.19165445014194,0.1313332163162 -0.21348470886685,0.15626829887391 -0.20603328094102,0.16840021061933 -0.16300585486857,0.19163201534804 -0.16296052181509,0.19162805692618" /></g><g clip-path="url(#id1)"><polygon fill="#13385A" points="-0.08570783650815,-0.08892221641167 -0.11038697243358,-0.09546678044291 -0.12171497118287,-0.08381610700021 -0.11628111810826,-0.07661797355456 -0.11352857878731,-0.07644673509951" /></g><g clip-path="url(#id1)"><polygon fill="#6B5F76" points="0.12405995022031,-0.09303293275123 0.10243822731371,-0.10228484350386 0.08613968358564,-0.10597120426498 0.07551782900844,-0.1044795633382 0.08844861332047,-0.08629953141426 0.12461228493969,-0.08327723392073 0.13315293968817,-0.08553332897427" /></g><g clip-path="url(#id1)"><polygon fill="#031326" points="0.03141471572465,0.09667455338635 0.00810311132781,0.15259385930174 0.01430275456727,0.15679408024735 0.05162253039016,0.16104741074108 0.07558139306659,0.15010188240247" /></g><g clip-path="url(#id1)"><polygon fill="#8E616C" points="-0.14234887966528,0.03547864783148 -0.13926087938253,0.02816400248118 -0.16969871754949,0.01810454407542 -0.18690851514262,0.02577562448518 -0.19597096262693,0.04995408330885 -0.19547818305112,0.05173406919699 -0.16443969519026,0.05009047037842" /></g><g clip-path="url(#id1)"><polygon fill="#6B5F76" points="-0.03427706038458,-0.02359726734307 -0.05401380332025,-0.02706578967191 -0.05600235921445,-0.02692513272718 -0.08598053344678,-0.00462395733601 -0.08194698203028,0.00366027013783 -0.07008387323686,0.00946592983097 -0.02851642079898,-0.00872700056149" /></g><g clip-path="url(#id1)"><polygon fill="#031326" points="-0.12910841587319,-0.0003802260236 -0.16836145276925,0.01594945040829 -0.16969871754949,0.01810454407542 -0.13926087938253,0.02816400248118 -0.12402789825796,0.02524831353768 -0.12124069787251,0.02310718973737" /></g><g clip-path="url(#id1)"><polygon fill="#48597A" points="-0.14234887966528,0.03547864783148 -0.16443969519026,0.05009047037842 -0.16215253364507,0.05218661054417 -0.13474159971356,0.06269536090994" /></g><g clip-path="url(#id1)"><polygon fill="#6B5F76" points="0.16884444738827,0.05308947486587 0.15690360765023,0.04187652100008 0.14101104193876,0.03635454169269 0.13315341183386,0.04357896281285 0.14536109447315,0.06270584008518 0.16975668949503,0.06891672810793" /></g><g clip-path="url(#id1)"><polygon fill="#8E616C" points="0.00300396069044,-0.02971541758743 -0.00484560485571,-0.03419222299198 -0.03427706038458,-0.02359726734307 -0.02851642079898,-0.00872700056149 -0.00845760045011,-0.00076561787254" /></g><g clip-path="url(#id1)"><polygon fill="#6B5F76" points="-0.00438126787166,0.00239357439423 -0.00845760045011,-0.00076561787254 -0.02851642079898,-0.00872700056149 -0.07008387323686,0.00946592983097 -0.06476717974389,0.01699279219999" /></g><g clip-path="url(#id1)"><polygon fill="#031326" points="0.22522061511964,0.12656606942834 0.18755880505748,0.14510020784445 0.23316804721842,0.17693809729616 0.25068880562172,0.14550227527037" /></g><g clip-path="url(#id1)"><polygon fill="#E57C62" points="0.04749460248952,-0.01222930285633 0.03370447565606,-0.02359255530288 0.02217958168038,-0.02416414805377 0.00122323947506,0.00473365424898" /></g><g clip-path="url(#id1)"><polygon fill="#13385A" points="0.05758857545566,-0.03533667796664 0.05588701235795,-0.03567263020994 0.03915892929888,-0.02923937567592 0.03370447565606,-0.02359255530288 0.04749460248952,-0.01222930285633 0.06118570731938,-0.00679109338242 0.07095672308777,-0.02425480295236" /></g><g clip-path="url(#id1)"><polygon fill="#48597A" points="-0.12171497118287,-0.08381610700021 -0.13659706850459,-0.08533197040084 -0.13100612801272,-0.07463623436882 -0.12499062779091,-0.07463007009121 -0.11628111810826,-0.07661797355456" /></g><g clip-path="url(#id1)"><polygon fill="#E9C99F" points="0.07084039211801,0.05408751537733 0.06632011598148,0.04076366377062 0.03395672112585,0.04749913294304 0.02918407177472,0.06492079075687 0.03708641256588,0.09156287695533 0.06290472008718,0.08989686282563" /></g><g clip-path="url(#id1)"><polygon fill="#BC6561" points="-0.13012753579692,-0.02463699979257 -0.15008691095826,-0.02668070104388 -0.16393804396581,-0.01312807770305 -0.16400510476044,-0.01010068467201 -0.13098013063687,-0.01207029332014" /></g><g clip-path="url(#id1)"><polygon fill="#13385A" points="-0.12402789825796,0.02524831353768 -0.13926087938253,0.02816400248118 -0.14234887966528,0.03547864783148 -0.13474159971356,0.06269536090994 -0.12920073629242,0.06980069303424 -0.12748297217222,0.07029203537445 -0.09228135866498,0.0526518579407" /></g><g clip-path="url(#id1)"><polygon fill="#8E616C" points="-0.06881697939169,-0.08895963098997 -0.06903566074855,-0.08894376501951 -0.07613219074478,-0.08691752536536 -0.07380636447589,-0.0818860340383 -0.03411637128632,-0.07060457734663 -0.02835712786677,-0.07371870075379 -0.02373632907844,-0.07791024647647 -0.02489250143991,-0.08125445162944" /></g><g clip-path="url(#id1)"><polygon fill="#E9C99F" points="0.07194212481136,-0.05093486810889 0.04820627647774,-0.0530407857064 0.0505750702175,-0.0487223193238 0.08364726295002,-0.03850779399858 0.09090394458299,-0.03903381054161 0.09129982951302,-0.03942155136004" /></g><g clip-path="url(#id1)"><polygon fill="#48597A" points="-0.11352857878731,-0.07644673509951 -0.11628111810826,-0.07661797355456 -0.12499062779091,-0.07463007009121 -0.13624652073239,-0.05825280801463 -0.12882041971154,-0.05854427714114 -0.09999610976763,-0.06329041600258" /></g><g clip-path="url(#id1)"><polygon fill="#48597A" points="-0.12861872364887,0.08396036143588 -0.12748297217222,0.07029203537445 -0.12920073629242,0.06980069303424 -0.17026753567341,0.07483567018111 -0.20087168867465,0.08190799729475 -0.20450822070436,0.09551903527461 -0.18355936089907,0.12075513285865" /></g><g clip-path="url(#id1)"><polygon fill="#13385A" points="0.07758661983212,-0.07215771316178 0.07981348917478,-0.0620079293423 0.0835041116269,-0.06046729229713 0.11125409460427,-0.05871832762773 0.10762169503906,-0.06590677322607" /></g><g clip-path="url(#id1)"><polygon fill="#E7A27A" points="-0.15008691095826,-0.02668070104388 -0.15103105416202,-0.03179179150078 -0.16474841825559,-0.03841286793356 -0.19578451566596,-0.03120063855975 -0.19772310563525,-0.02813589404879 -0.16393804396581,-0.01312807770305" /></g><g clip-path="url(#id1)"><polygon fill="#E9C99F" points="0.22868511608439,0.02577562448518 0.22052560409863,0.0248929062358 0.19617934330939,0.04577009367543 0.19629977808181,0.04587338991096 0.22452039781066,0.05152281570253 0.24322292404484,0.04995408330885" /></g><g clip-path="url(#id1)"><polygon fill="#13385A" points="0.03141471572465,0.09667455338635 0.03147103910806,0.09543296004067 0.02013716478917,0.0940375655245 -0.02879814058649,0.11060266214039 -0.05808654137496,0.13105272827277 -0.0422997923466,0.15569448026766 0.00810311132781,0.15259385930174" /></g><g clip-path="url(#id1)"><polygon fill="#E9C99F" points="0.10773839135362,0.01116187052749 0.09219287034947,0.01643161692966 0.09049161687726,0.02125221761505 0.14076289711609,0.03162161518279 0.14146220992455,0.02599014140699" /></g><g clip-path="url(#id1)"><polygon fill="#8E616C" points="-0.01742066006017,-0.04515547999345 -0.03820807165432,-0.04677803359279 -0.05401380332025,-0.02706578967191 -0.03427706038458,-0.02359726734307 -0.00484560485571,-0.03419222299198 -0.00473262994064,-0.03553129586708" /></g><g clip-path="url(#id1)"><polygon fill="#E9C99F" points="0.0505750702175,-0.0487223193238 0.04820627647774,-0.0530407857064 0.04202421983461,-0.05622040760842 0.02609197707644,-0.05554645709195 0.02280206319342,-0.05139881630776 0.03915892929888,-0.02923937567592 0.05588701235795,-0.03567263020994" /></g><g clip-path="url(#id1)"><polygon fill="#E57C62" points="-0.25001084113122,0.12474773416288 -0.25545584294209,0.139297569381 -0.24142134086331,0.1610780057982 -0.21348470886685,0.15626829887391 -0.19165445014194,0.1313332163162" /></g><g clip-path="url(#id1)"><polygon fill="#8E616C" points="0.27916097820969,0.09551903527461 0.26951196646113,0.08190799729475 0.26129824111367,0.07699910689196 0.231765950475,0.078339933339 0.21722599035149,0.08664257373281 0.21765359594797,0.09375709215509 0.25987333054564,0.11425480066634" /></g><g clip-path="url(#id1)"><polygon fill="#BC6561" points="-0.13233054433479,-0.0449228056008 -0.15008945847047,-0.05309469885393 -0.16474841825559,-0.03841286793356 -0.15103105416202,-0.03179179150078 -0.12844056591993,-0.03957191309504" /></g><g clip-path="url(#id1)"><polygon fill="#BC6561" points="0.12461228493969,-0.08327723392073 0.08844861332047,-0.08629953141426 0.0846383142194,-0.08106038074957 0.10718951344955,-0.07034814127441" /></g><g clip-path="url(#id1)"><polygon fill="#E9C99F" points="-0.04610583448225,-0.05262933112597 -0.05318620225606,-0.05965174635584 -0.08361822700615,-0.05535893694275 -0.08904769511455,-0.04735701042203 -0.09030159799285,-0.04424868895512 -0.06539582584845,-0.03254807951375" /></g><g clip-path="url(#id1)"><polygon fill="#E9C99F" points="0.06202094163643,-0.00544176219273 0.05893016379381,-0.00132601251151 0.0538030491996,0.02017548134529 0.07158966428759,0.0356290377058 0.08136181781488,0.03464001805086 0.09049161687726,0.02125221761505 0.09219287034947,0.01643161692966" /></g><g clip-path="url(#id1)"><polygon fill="#E7A27A" points="0.05893016379381,-0.00132601251151 0.00903170572279,0.01202745431389 0.02359847431401,0.01896959044973 0.0538030491996,0.02017548134529" /></g><g clip-path="url(#id1)"><polygon fill="#E9C99F" points="0.1402348961701,-0.07134691890793 0.13570499989039,-0.08497523069939 0.13315293968817,-0.08553332897427 0.12461228493969,-0.08327723392073 0.10718951344955,-0.07034814127441 0.10762169503906,-0.06590677322607 0.11125409460427,-0.05871832762773 0.11711676516256,-0.0551700626893 0.1273684836363,-0.05855442804221" /></g><g clip-path="url(#id1)"><polygon fill="#48597A" points="0.00773635619512,-0.09883022799075 0.0043982029117,-0.10006336792794 -0.02290070989945,-0.0991522326857 -0.02423724154324,-0.09743658625815 -0.02489250143991,-0.08125445162944 -0.02373632907844,-0.07791024647647 0.00080501603642,-0.07897732523552 0.01180288792737,-0.08558718617141" /></g><g clip-path="url(#id1)"><polygon fill="#8E616C" points="0.07551782900844,-0.1044795633382 0.0745665704944,-0.10453237641909 0.06315410608843,-0.10089334702586 0.05179135786011,-0.08143894522615 0.06344772202998,-0.07832387429326 0.06970827219953,-0.07799818287905 0.0846383142194,-0.08106038074957 0.08844861332047,-0.08629953141426" /></g><g clip-path="url(#id1)"><polygon fill="#6B5F76" points="0.18851995339879,-0.05309469885393 0.18709425914238,-0.0550951004207 0.1813257450646,-0.05706273610515 0.1601675982585,-0.05132899049745 0.14790564532395,-0.03974713310835 0.16419538219803,-0.03120063855975 0.18819172340271,-0.03841286793356" /></g><g clip-path="url(#id1)"><polygon fill="#E57C62" points="-0.08904769511455,-0.04735701042203 -0.12206071336801,-0.04980047014917 -0.13233054433479,-0.0449228056008 -0.12844056591993,-0.03957191309504 -0.10381323822636,-0.03683643660063 -0.09030159799285,-0.04424868895512" /></g><g clip-path="url(#id1)"><polygon fill="#6B5F76" points="0.21722599035149,0.08664257373281 0.18882294343042,0.07173339548238 0.17836462633931,0.07353590176055 0.1773254618914,0.07896316820589 0.19879433579886,0.10194593742329 0.21069784869702,0.10130421377493 0.21765359594797,0.09375709215509" /></g><g clip-path="url(#id1)"><polygon fill="#48597A" points="0.18295934957454,0.05698089713739 0.16884444738827,0.05308947486587 0.16975668949503,0.06891672810793 0.17836462633931,0.07353590176055 0.18882294343042,0.07173339548238 0.19154859382439,0.06386936771235" /></g><g clip-path="url(#id1)"><polygon fill="#BC6561" points="-0.13659706850459,-0.08533197040084 -0.14818617325897,-0.08832197559878 -0.16211755502048,-0.08474436813185 -0.15015444654778,-0.07258099196718 -0.13100612801272,-0.07463623436882" /></g><g clip-path="url(#id1)"><polygon fill="#8E616C" points="-0.02722570044089,0.07120092464 -0.02732151574405,0.07128117679241 -0.02879814058649,0.11060266214039 0.02013716478917,0.0940375655245" /></g><g clip-path="url(#id1)"><polygon fill="#031326" points="-0.10382330205121,-0.03682109847797 -0.13012753579692,-0.02463699979257 -0.13098013063687,-0.01207029332014 -0.1201649988596,-0.00710180936558 -0.10049495115453,-0.00922557819247" /></g><g clip-path="url(#id1)"><polygon fill="#13385A" points="0.02280206319342,-0.05139881630776 -0.00473262994064,-0.03553129586708 -0.00484560485571,-0.03419222299198 0.00300396069044,-0.02971541758743 0.02217958168038,-0.02416414805377 0.03370447565606,-0.02359255530288 0.03915892929888,-0.02923937567592" /></g><g clip-path="url(#id1)"><polygon fill="#031326" points="-0.07380636447589,-0.0818860340383 -0.09065367880659,-0.06129226351346 -0.08361822700615,-0.05535893694275 -0.05318620225606,-0.05965174635584 -0.03433440432979,-0.07030498101272 -0.03411637128632,-0.07060457734663" /></g><g clip-path="url(#id1)"><polygon fill="#BC6561" points="0.06344772202998,-0.07832387429326 0.05179135786011,-0.08143894522615 0.0448678134902,-0.08062397237746 0.04316604629588,-0.05726309970865 0.06445376614848,-0.06410097708082" /></g><g clip-path="url(#id1)"><polygon fill="#48597A" points="0.1773254618914,0.07896316820589 0.15405440440664,0.09512757898745 0.15842137176825,0.12634944199859 0.19879433579886,0.10194593742329" /></g><g clip-path="url(#id1)"><polygon fill="#031326" points="-0.08361822700615,-0.05535893694275 -0.09065367880659,-0.06129226351346 -0.09999610976763,-0.06329041600258 -0.12882041971154,-0.05854427714114 -0.12206071336801,-0.04980047014917 -0.08904769511455,-0.04735701042203" /></g><g clip-path="url(#id1)"><polygon fill="#6B5F76" points="0.09049161687726,0.02125221761505 0.08136181781488,0.03464001805086 0.1097067375742,0.04541195392389 0.13315341183386,0.04357896281285 0.14101104193876,0.03635454169269 0.14076289711609,0.03162161518279" /></g><g clip-path="url(#id1)"><polygon fill="#13385A" points="0.1402348961701,-0.07134691890793 0.1273684836363,-0.05855442804221 0.14781500112424,-0.05930434643019 0.15892658540702,-0.06293447828842" /></g><g clip-path="url(#id1)"><polygon fill="#48597A" points="-0.10382330205121,-0.03682109847797 -0.10381323822636,-0.03683643660063 -0.12844056591993,-0.03957191309504 -0.15103105416202,-0.03179179150078 -0.15008691095826,-0.02668070104388 -0.13012753579692,-0.02463699979257" /></g><g clip-path="url(#id1)"><polygon fill="#48597A" points="0.14536109447315,0.06270584008518 0.13315341183386,0.04357896281285 0.1097067375742,0.04541195392389 0.10556116259656,0.06996442039627 0.10668366663507,0.07357892860084 0.13882448320854,0.07628624316825" /></g><g clip-path="url(#id1)"><polygon fill="#BC6561" points="0.21571956586428,0.06656356716397 0.19993375187976,0.05998044385242 0.19154859382439,0.06386936771235 0.18882294343042,0.07173339548238 0.21722599035149,0.08664257373281 0.231765950475,0.078339933339" /></g><g clip-path="url(#id1)"><polygon fill="#13385A" points="-0.11038697243358,-0.09546678044291 -0.11552390600888,-0.09898412389381 -0.13012510196704,-0.09758128069842 -0.14818617325897,-0.08832197559878 -0.13659706850459,-0.08533197040084 -0.12171497118287,-0.08381610700021" /></g><g clip-path="url(#id1)"><polygon fill="#E7A27A" points="0.02359847431401,0.01896959044973 0.00903170572279,0.01202745431389 0.00369711299805,0.01061048827114 -0.01561106390271,0.02960468973289 -0.00087278555482,0.04052131017661 0.02951983337108,0.04461931936147" /></g><g clip-path="url(#id1)"><polygon fill="#6B5F76" points="0.16943466719174,-0.07258099196718 0.14559905738839,-0.08474436813185 0.13570499989039,-0.08497523069939 0.1402348961701,-0.07134691890793 0.15892658540702,-0.06293447828842 0.1728379901253,-0.06211684963836" /></g><g clip-path="url(#id1)"><polygon fill="#48597A" points="-0.03820807165432,-0.04677803359279 -0.04610583448225,-0.05262933112597 -0.06539582584845,-0.03254807951375 -0.05600235921445,-0.02692513272718 -0.05401380332025,-0.02706578967191" /></g><g clip-path="url(#id1)"><polygon fill="#13385A" points="0.0835041116269,-0.06046729229713 0.07981348917478,-0.0620079293423 0.06445376614848,-0.06410097708082 0.04316604629588,-0.05726309970865 0.04202421983461,-0.05622040760842 0.04820627647774,-0.0530407857064 0.07194212481136,-0.05093486810889" /></g><g clip-path="url(#id1)"><polygon fill="#8E616C" points="0.13882448320854,0.07628624316825 0.10668366663507,0.07357892860084 0.08955587444836,0.09589744614483 0.13567622062176,0.13761263549815 0.13742719662324,0.13778750910287 0.15611085016258,0.1328680506336 0.15842137176825,0.12634944199859 0.15405440440664,0.09512757898745" /></g><g clip-path="url(#id1)"><polygon fill="#BC6561" points="-0.16393804396581,-0.01312807770305 -0.19772310563525,-0.02813589404879 -0.21558172203414,-0.01503974505308 -0.21999973103064,-0.00661667342754 -0.21383345848563,-0.00352125502999 -0.16928093780075,-0.00458584305078 -0.16400510476044,-0.01010068467201" /></g><g clip-path="url(#id1)"><polygon fill="#E57C62" points="-0.08194698203028,0.00366027013783 -0.08598053344678,-0.00462395733601 -0.10049495115453,-0.00922557819247 -0.1201649988596,-0.00710180936558 -0.12910841587319,-0.0003802260236 -0.12124069787251,0.02310718973737" /></g><g clip-path="url(#id1)"><polygon fill="#BC6561" points="-0.02423724154324,-0.09743658625815 -0.06881697939169,-0.08895963098997 -0.02489250143991,-0.08125445162944" /></g><g clip-path="url(#id1)"><polygon fill="#8E616C" points="0.01670605037679,-0.07175246431851 0.00080501603642,-0.07897732523552 -0.02373632907844,-0.07791024647647 -0.02835712786677,-0.07371870075379 0.01612305707486,-0.05934407622385 0.01910516992075,-0.0591600754789" /></g><g clip-path="url(#id1)"><polygon fill="#48597A" points="0.24545312294726,0.05173406919699 0.24322292404484,0.04995408330885 0.22452039781066,0.05152281570253 0.21884633793426,0.05552620686538 0.21571956586428,0.06656356716397 0.231765950475,0.078339933339 0.26129824111367,0.07699910689196" /></g><g clip-path="url(#id1)"><polygon fill="#031326" points="-0.07380636447589,-0.0818860340383 -0.07613219074478,-0.08691752536536 -0.08568427242177,-0.08892331076638 -0.08570783650815,-0.08892221641167 -0.11352857878731,-0.07644673509951 -0.09999610976763,-0.06329041600258 -0.09065367880659,-0.06129226351346" /></g><g clip-path="url(#id1)"><polygon fill="#E9C99F" points="0.02782502935964,-0.09759016929173 0.00773635619512,-0.09883022799075 0.01180288792737,-0.08558718617141 0.03713867343359,-0.08355127070058" /></g><g clip-path="url(#id1)"><polygon fill="#031326" points="0.1079309066309,-0.00493428756191 0.10746830093141,-0.00525226845584 0.09592622750584,-0.00884612332164 0.06202655463108,-0.00609692000579 0.06202094163643,-0.00544176219273 0.09219287034947,0.01643161692966 0.10773839135362,0.01116187052749" /></g><g clip-path="url(#id1)"><polygon fill="#8E616C" points="-0.09176788373928,0.11973939235134 -0.09533501703156,0.11912434190406 -0.14141847875717,0.13522414999393 -0.16296052181509,0.19162805692618 -0.14564060870136,0.19892565462059 -0.13128920723784,0.19155407588151" /></g><g clip-path="url(#id1)"><polygon fill="#BC6561" points="0.0505750702175,-0.0487223193238 0.05588701235795,-0.03567263020994 0.05758857545566,-0.03533667796664 0.08364726295002,-0.03850779399858" /></g><g clip-path="url(#id1)"><polygon fill="#48597A" points="0.11910108320974,-0.04690513084901 0.09129982951302,-0.03942155136004 0.09090394458299,-0.03903381054161 0.0912000905782,-0.03535263025399 0.09937171727872,-0.02569031238292 0.12048705640314,-0.02173864071663 0.12272182879878,-0.02229065968777" /></g><g clip-path="url(#id1)"><polygon fill="#6B5F76" points="0.02280206319342,-0.05139881630776 0.02609197707644,-0.05554645709195 0.01910516992075,-0.0591600754789 0.01612305707486,-0.05934407622385 -0.01414221353397,-0.05530083054525 -0.01742066006017,-0.04515547999345 -0.00473262994064,-0.03553129586708" /></g><g clip-path="url(#id1)"><polygon fill="#E57C62" points="-0.08756738432789,0.05194957319414 -0.09228135866497,0.0526518579407 -0.12748297217222,0.07029203537445 -0.12861872364887,0.08396036143588 -0.09533501703156,0.11912434190406 -0.09176788373928,0.11973939235134 -0.07908586811432,0.11885316494274 -0.06677113741506,0.09264252446688" /></g><g clip-path="url(#id1)"><polygon fill="#E57C62" points="0.27094497073048,0.139297569381 0.25068880562172,0.14550227527037 0.23316804721842,0.17693809729616 0.25575345369007,0.20401172796935 0.26108195526548,0.20607407827637 0.28030685340578,0.20692916405145 0.2972833244116,0.19380695539876 0.30623905212707,0.1610780057982" /></g><g clip-path="url(#id1)"><polygon fill="#48597A" points="0.2621880819109,0.12474773416288 0.25962318417481,0.1208487124269 0.22717990135639,0.12055486928309 0.22522061511964,0.12656606942834 0.25068880562172,0.14550227527037 0.27094497073048,0.139297569381" /></g><g clip-path="url(#id1)"><polygon fill="#6B5F76" points="0.08955587444836,0.09589744614483 0.06290472008718,0.08989686282563 0.03708641256588,0.09156287695533 0.03147103910806,0.09543296004067 0.03141471572465,0.09667455338635 0.07558139306659,0.15010188240247 0.11608256062842,0.14978319429646 0.13567622062176,0.13761263549815" /></g><g clip-path="url(#id1)"><polygon fill="#8E616C" points="-0.12499062779091,-0.07463007009121 -0.13100612801272,-0.07463623436882 -0.15015444654778,-0.07258099196718 -0.15696502656689,-0.06211684963836 -0.15341052114943,-0.05706273610515 -0.14956258873957,-0.0550951004207 -0.13624652073239,-0.05825280801463" /></g><g clip-path="url(#id1)"><polygon fill="#BC6561" points="-0.12861872364887,0.08396036143588 -0.18355936089907,0.12075513285865 -0.18369746750401,0.12266114905572 -0.14141847875717,0.13522414999393 -0.09533501703156,0.11912434190406" /></g><g clip-path="url(#id1)"><polygon fill="#48597A" points="0.04430102374357,-0.08069386354885 0.03713867343359,-0.08355127070058 0.01180288792737,-0.08558718617141 0.00080501603642,-0.07897732523552 0.01670605037679,-0.07175246431851" /></g><g clip-path="url(#id1)"><polygon fill="#BC6561" points="-0.16928093780075,-0.00458584305078 -0.21383345848563,-0.00352125502999 -0.20791491840736,0.02078260996273 -0.1942064181928,0.0248929062358 -0.18690851514262,0.02577562448518 -0.16969871754949,0.01810454407542 -0.16836145276925,0.01594945040829" /></g><g clip-path="url(#id1)"><polygon fill="#E57C62" points="0.21765359594797,0.09375709215509 0.21069784869702,0.10130421377493 0.22717990135639,0.12055486928309 0.25962318417481,0.1208487124269 0.25987333054564,0.11425480066634" /></g><g clip-path="url(#id1)"><polygon fill="#031326" points="0.22452039781066,0.05152281570253 0.19629977808181,0.04587338991096 0.20012837937581,0.05813098528699 0.21884633793426,0.05552620686538" /></g><g clip-path="url(#id1)"><polygon fill="#E57C62" points="0.17316389845711,-0.00352125502999 0.16397623131357,-0.00661667342754 0.14942067775678,0.00307503106153 0.15059704010195,0.01864616943766 0.18175208565576,0.02581993556602 0.20280510118755,0.02078260996273" /></g><g clip-path="url(#id1)"><polygon fill="#E57C62" points="-0.02732151574405,0.07128117679241 -0.06677113741506,0.09264252446688 -0.07908586811432,0.11885316494274 -0.05808654137496,0.13105272827277 -0.02879814058649,0.11060266214039" /></g><g clip-path="url(#id1)"><polygon fill="#48597A" points="0.0448678134902,-0.08062397237746 0.04430102374357,-0.08069386354885 0.01670605037679,-0.07175246431851 0.01910516992075,-0.0591600754789 0.02609197707644,-0.05554645709195 0.04202421983461,-0.05622040760842 0.04316604629588,-0.05726309970865" /></g><g clip-path="url(#id1)"><polygon fill="#6B5F76" points="0.02918407177472,0.06492079075687 -0.00379102778006,0.05732514721564 -0.02727461006556,0.06993384304968 -0.02722570044089,0.07120092464 0.02013716478917,0.0940375655245 0.03147103910806,0.09543296004067 0.03708641256588,0.09156287695533" /></g><g clip-path="url(#id1)"><polygon fill="#E9C99F" points="-0.16215253364507,0.05218661054417 -0.16443969519026,0.05009047037842 -0.19547818305112,0.05173406919699 -0.20429391476647,0.07699910689196 -0.20087168867465,0.08190799729475 -0.17026753567341,0.07483567018111" /></g><g clip-path="url(#id1)"><polygon fill="#E9C99F" points="0.09937171727872,-0.02569031238292 0.0912000905782,-0.03535263025399 0.07782667153803,-0.02541885006458 0.09454461119229,-0.01672655549062" /></g><g clip-path="url(#id1)"><polygon fill="#BC6561" points="0.0846383142194,-0.08106038074957 0.06970827219953,-0.07799818287905 0.07758661983212,-0.07215771316178 0.10762169503906,-0.06590677322607 0.10718951344955,-0.07034814127441" /></g><g clip-path="url(#id1)"><polygon fill="#13385A" points="-0.18369746750401,0.12266114905572 -0.18355936089907,0.12075513285865 -0.20450822070436,0.09551903527461 -0.24208358688772,0.11425480066634 -0.2487699582911,0.1208487124269 -0.25001084113122,0.12474773416288 -0.19165445014194,0.1313332163162" /></g><g clip-path="url(#id1)"><polygon fill="#BC6561" points="0.02217958168038,-0.02416414805377 0.00300396069044,-0.02971541758743 -0.00845760045011,-0.00076561787254 -0.00438126787166,0.00239357439423 0.00087319523798,0.0049704297588 0.00122323947506,0.00473365424898" /></g><g clip-path="url(#id1)"><polygon fill="#13385A" points="-0.05600235921445,-0.02692513272718 -0.06539582584845,-0.03254807951375 -0.09030159799285,-0.04424868895512 -0.10381323822636,-0.03683643660063 -0.10382330205121,-0.03682109847797 -0.10049495115453,-0.00922557819247 -0.08598053344678,-0.00462395733601" /></g><g clip-path="url(#id1)"><polygon fill="#E57C62" points="-0.05390645872539,0.03762458995677 -0.05795322876689,0.03686920455116 -0.08756738432789,0.05194957319414 -0.06677113741506,0.09264252446688 -0.02732151574405,0.07128117679241 -0.02722570044089,0.07120092464 -0.02727461006556,0.06993384304968" /></g><g clip-path="url(#id1)"><polygon fill="#E57C62" points="0.05893016379381,-0.00132601251151 0.06202094163643,-0.00544176219273 0.06202655463108,-0.00609692000579 0.06118570731938,-0.00679109338242 0.04749460248952,-0.01222930285633 0.00122323947506,0.00473365424898 0.00087319523798,0.0049704297588 0.00369711299805,0.01061048827114 0.00903170572279,0.01202745431389" /></g><g clip-path="url(#id1)"><polygon fill="#13385A" points="0.00369711299805,0.01061048827114 0.00087319523798,0.0049704297588 -0.00438126787166,0.00239357439423 -0.06476717974389,0.01699279219999 -0.05795322876689,0.03686920455116 -0.05390645872539,0.03762458995677 -0.01561106390271,0.02960468973289" /></g><g clip-path="url(#id1)"><polygon fill="#13385A" points="-0.02835712786677,-0.07371870075379 -0.03411637128632,-0.07060457734663 -0.03433440432979,-0.07030498101272 -0.01414221353397,-0.05530083054525 0.01612305707486,-0.05934407622385" /></g><g clip-path="url(#id1)"><polygon fill="#E9C99F" points="0.07084039211801,0.05408751537733 0.06290472008718,0.08989686282563 0.08955587444836,0.09589744614483 0.10668366663507,0.07357892860084 0.10556116259656,0.06996442039627" /></g><g clip-path="url(#id1)"><polygon fill="#E9C99F" points="-0.12882041971154,-0.05854427714114 -0.13624652073239,-0.05825280801463 -0.14956258873957,-0.0550951004207 -0.15008945847047,-0.05309469885393 -0.13233054433479,-0.0449228056008 -0.12206071336801,-0.04980047014917" /></g><g clip-path="url(#id1)"><polygon fill="#48597A" points="0.11711676516256,-0.0551700626893 0.11125409460427,-0.05871832762773 0.0835041116269,-0.06046729229713 0.07194212481136,-0.05093486810889 0.09129982951302,-0.03942155136004 0.11910108320974,-0.04690513084901 0.12034278960387,-0.04769105677729" /></g><g clip-path="url(#id1)"><polygon fill="#BC6561" points="0.12864034263653,-0.02049464407261 0.12272182879878,-0.02229065968777 0.12048705640314,-0.02173864071663 0.10746830093141,-0.00525226845584 0.1079309066309,-0.00493428756191 0.12783268531142,-0.00225773473615" /></g><g clip-path="url(#id1)"><polygon fill="#6B5F76" points="0.21884633793426,0.05552620686538 0.20012837937581,0.05813098528699 0.19993375187976,0.05998044385242 0.21571956586428,0.06656356716397" /></g><g clip-path="url(#id1)"><polygon fill="#E7A27A" points="0.1813257450646,-0.05706273610515 0.1728379901253,-0.06211684963836 0.15892658540702,-0.06293447828842 0.14781500112424,-0.05930434643019 0.1601675982585,-0.05132899049745" /></g><g clip-path="url(#id1)"><polygon fill="#13385A" points="0.03395672112585,0.04749913294304 0.02951983337108,0.04461931936147 -0.00087278555482,0.04052131017661 -0.00379102778006,0.05732514721564 0.02918407177472,0.06492079075687" /></g><g clip-path="url(#id1)"><polygon fill="#8E616C" points="0.06315410608843,-0.10089334702586 0.04110879402072,-0.1007990451543 0.02782502935964,-0.09759016929173 0.03713867343359,-0.08355127070058 0.04430102374357,-0.08069386354885 0.0448678134902,-0.08062397237746 0.05179135786011,-0.08143894522615" /></g><g clip-path="url(#id1)"><polygon fill="#031326" points="0.21069784869702,0.10130421377493 0.19879433579886,0.10194593742329 0.15842137176825,0.12634944199859 0.15611085016258,0.1328680506336 0.18755880505748,0.14510020784445 0.22522061511964,0.12656606942834 0.22717990135639,0.12055486928309" /></g><g clip-path="url(#id1)"><polygon fill="#13385A" points="0.12048705640314,-0.02173864071663 0.09937171727872,-0.02569031238292 0.09454461119229,-0.01672655549062 0.09592622750584,-0.00884612332164 0.10746830093141,-0.00525226845584" /></g><g clip-path="url(#id1)"><polygon fill="#48597A" points="0.16524824647565,-0.02813589404879 0.16419538219803,-0.03120063855975 0.14790564532395,-0.03974713310835 0.12034278960387,-0.04769105677729 0.11910108320974,-0.04690513084901 0.12272182879878,-0.02229065968777 0.12864034263653,-0.02049464407261 0.16017259791997,-0.01503974505308" /></g><g clip-path="url(#id1)"><polygon fill="#E57C62" points="-0.00087278555482,0.04052131017661 -0.01561106390271,0.02960468973289 -0.05390645872539,0.03762458995677 -0.02727461006556,0.06993384304968 -0.00379102778006,0.05732514721564" /></g><g clip-path="url(#id1)"><polygon fill="#48597A" points="0.0912000905782,-0.03535263025399 0.09090394458299,-0.03903381054161 0.08364726295002,-0.03850779399858 0.05758857545566,-0.03533667796664 0.07095672308777,-0.02425480295235 0.07782667153803,-0.02541885006458" /></g><g clip-path="url(#id1)"><polygon fill="#E9C99F" points="-0.1201649988596,-0.00710180936558 -0.13098013063687,-0.01207029332014 -0.16400510476044,-0.01010068467201 -0.16928093780075,-0.00458584305078 -0.16836145276925,0.01594945040829 -0.12910841587319,-0.0003802260236" /></g><g clip-path="url(#id1)"><polygon fill="#6B5F76" points="0.18175208565576,0.02581993556602 0.15059704010195,0.01864616943766 0.14146220992455,0.02599014140699 0.14076289711609,0.03162161518279 0.14101104193876,0.03635454169269 0.15690360765023,0.04187652100008 0.1808642914992,0.04343368899668 0.18702663512777,0.04207720702573" /></g><g clip-path="url(#id1)"><polygon fill="#BC6561" points="0.0538030491996,0.02017548134529 0.02359847431401,0.01896959044973 0.02951983337108,0.04461931936147 0.03395672112585,0.04749913294304 0.06632011598148,0.04076366377062 0.07158966428759,0.0356290377058" /></g><g clip-path="url(#id1)"><polygon fill="#031326" points="0.22052560409863,0.0248929062358 0.20280510118755,0.02078260996273 0.18175208565576,0.02581993556602 0.18702663512777,0.04207720702573 0.19617934330939,0.04577009367543" /></g><g clip-path="url(#id1)"><polygon fill="#E7A27A" points="0.1097067375742,0.04541195392389 0.08136181781488,0.03464001805086 0.07158966428759,0.0356290377058 0.06632011598148,0.04076366377062 0.07084039211801,0.05408751537733 0.10556116259656,0.06996442039627" /></g><g clip-path="url(#id1)"><polygon fill="#031326" points="0.17836462633931,0.07353590176055 0.16975668949503,0.06891672810793 0.14536109447315,0.06270584008518 0.13882448320854,0.07628624316825 0.15405440440664,0.09512757898745 0.1773254618914,0.07896316820589" /></g><g clip-path="url(#id1)"><polygon fill="#E9C99F" points="-0.04498580812105,0.16157626893126 -0.0422997923466,0.15569448026766 -0.05808654137496,0.13105272827277 -0.07908586811432,0.11885316494274 -0.09176788373928,0.11973939235134 -0.13128920723784,0.19155407588151 -0.13086730859316,0.19149669625113" /></g><g clip-path="url(#id1)"><polygon fill="#6B5F76" points="0.14781500112424,-0.05930434643019 0.1273684836363,-0.05855442804221 0.11711676516256,-0.0551700626893 0.12034278960387,-0.04769105677729 0.14790564532395,-0.03974713310835 0.1601675982585,-0.05132899049745" /></g><g clip-path="url(#id1)"><polygon fill="#6B5F76" points="0.07782667153803,-0.02541885006458 0.07095672308777,-0.02425480295235 0.06118570731938,-0.00679109338242 0.06202655463108,-0.00609692000579 0.09592622750584,-0.00884612332164 0.09454461119229,-0.01672655549062" /></g></svg>
