<?xml version="1.0" encoding="UTF-8" standalone="no"?>
<!DOCTYPE svg PUBLIC "-//W3C//DTD SVG 1.1//EN" "http://www.w3.org/Graphics/SVG/1.1/DTD/svg11.dtd">
<svg width="100%" height="100%" viewBox="0 0 300 300" version="1.1" xmlns="http://www.w3.org/2000/svg" xmlns:xlink="http://www.w3.org/1999/xlink" xml:space="preserve" xmlns:serif="http://www.serif.com/" style="fill-rule:evenodd;clip-rule:evenodd;stroke-linejoin:round;stroke-miterlimit:2;">
    <g id="svgstar">
        <clipPath id="_clip1">
            <path id="svgbar" d="M149.934,106.029l-42.702,42.702l-72.645,-72.645l42.702,-42.702l72.645,72.645Z"/>
        </clipPath>
        <g clip-path="url(#_clip1)">
            <path d="M101.706,79.086c0,-5.943 -2.363,-11.648 -6.565,-15.851c-8.696,-8.696 -23.007,-8.696 -31.703,0c-8.696,8.696 -8.696,23.007 0,31.703c4.202,4.202 9.908,6.566 15.851,6.566l119.005,119.004c-0,5.943 2.363,11.649 6.565,15.851c8.696,8.696 23.007,8.696 31.703,0c8.696,-8.696 8.696,-23.007 -0,-31.703c-4.202,-4.202 -9.908,-6.565 -15.851,-6.565l-119.005,-119.005Z" style="fill:#ff9b7d;fill-rule:nonzero;stroke:#fff;stroke-width:12px;"/>
        </g>
        <clipPath id="_clip2">
            <path id="svgbar1" serif:id="svgbar" d="M187.996,152.925l-41.413,-41.413l74.128,-74.128l41.413,41.413l-74.128,74.128Z"/>
        </clipPath>
        <g clip-path="url(#_clip2)">
            <path d="M220.711,101.504c5.943,-0 11.649,-2.364 15.851,-6.566c8.696,-8.696 8.696,-23.007 -0,-31.703c-8.696,-8.696 -23.007,-8.696 -31.703,0c-4.202,4.203 -6.565,9.908 -6.565,15.851l-119.005,119.005c-5.943,-0 -11.649,2.363 -15.851,6.565c-8.696,8.696 -8.696,23.007 0,31.703c8.696,8.696 23.007,8.696 31.703,0c4.202,-4.202 6.565,-9.908 6.565,-15.851l119.005,-119.004Z" style="fill:#ff9b7d;fill-rule:nonzero;stroke:#fff;stroke-width:12px;"/>
        </g>
        <path id="svgbar2" serif:id="svgbar" d="M65.851,133.946c-4.202,-4.203 -9.908,-6.566 -15.851,-6.566c-12.298,-0 -22.417,10.119 -22.417,22.417c-0,12.298 10.119,22.417 22.417,22.417c5.943,0 11.649,-2.363 15.851,-6.566l168.298,0c4.202,4.203 9.908,6.566 15.851,6.566c12.298,0 22.417,-10.119 22.417,-22.417c0,-12.298 -10.119,-22.417 -22.417,-22.417c-5.943,-0 -11.649,2.363 -15.851,6.566l-168.298,-0Z" style="fill:#ff9b7d;fill-rule:nonzero;stroke:#fff;stroke-width:12px;"/>
        <clipPath id="_clip3">
            <path id="svgbar3" serif:id="svgbar" d="M180.417,139.214l-59.834,0l-0,-120.834l59.834,0l0,120.834Z"/>
        </clipPath>
        <g clip-path="url(#_clip3)">
            <path d="M165.851,65.648c4.203,-4.202 6.566,-9.908 6.566,-15.851c0,-12.298 -10.119,-22.417 -22.417,-22.417c-12.298,0 -22.417,10.119 -22.417,22.417c-0,5.943 2.363,11.649 6.566,15.851l-0,168.298c-4.203,4.202 -6.566,9.908 -6.566,15.851c-0,12.298 10.119,22.417 22.417,22.417c12.298,0 22.417,-10.119 22.417,-22.417c0,-5.943 -2.363,-11.649 -6.566,-15.851l0,-168.298Z" style="fill:#ff9b7d;fill-rule:nonzero;stroke:#fff;stroke-width:12px;"/>
        </g>
    </g>
    <g>
        <path d="M150,164.574l-39.316,-64.197l78.632,-0l-39.316,64.197Z" style="fill:#c2628d;fill-opacity:0.9;fill-rule:nonzero;stroke:#fff;stroke-width:1.07px;stroke-miterlimit:4;"/>
        <path d="M150,164.574l-63.735,6.983l24.419,-71.18l39.316,64.197Z" style="fill:#a31453;fill-opacity:0.9;fill-rule:nonzero;stroke:#fff;stroke-width:1.07px;stroke-miterlimit:4;"/>
        <path d="M150,164.574l39.316,-64.197l24.419,71.18l-63.735,-6.983Z" style="fill:#ca779c;fill-opacity:0.9;fill-rule:nonzero;stroke:#fff;stroke-width:1.07px;stroke-miterlimit:4;"/>
        <path d="M150,164.574l63.735,6.983l-63.735,44.126l0,-51.109Z" style="fill:#b0366c;fill-opacity:0.9;fill-rule:nonzero;stroke:#fff;stroke-width:1.07px;stroke-miterlimit:4;"/>
        <path d="M150,164.574l0,51.109l-63.735,-44.126l63.735,-6.983Z" style="fill:#98003f;fill-opacity:0.9;fill-rule:nonzero;stroke:#fff;stroke-width:1.07px;stroke-miterlimit:4;"/>
        <path d="M189.316,100.377l-78.632,-0l39.316,-33.18l39.316,33.18Z" style="fill:#dca5be;fill-opacity:0.9;fill-rule:nonzero;stroke:#fff;stroke-width:1.07px;stroke-miterlimit:4;"/>
        <path d="M86.265,171.557l-0.265,-60.224l24.684,-10.956l-24.419,71.18Z" style="fill:#aa2661;fill-opacity:0.9;fill-rule:nonzero;stroke:#fff;stroke-width:1.07px;stroke-miterlimit:4;"/>
        <path d="M214,111.333l-0.265,60.224l-24.419,-71.18l24.684,10.956Z" style="fill:#e9c7d6;fill-opacity:0.9;fill-rule:nonzero;stroke:#fff;stroke-width:1.07px;stroke-miterlimit:4;"/>
        <path d="M214,111.333l-24.684,-10.956l-39.316,-33.18l64,44.136Z" style="fill:#f4e4eb;fill-opacity:0.9;fill-rule:nonzero;stroke:#fff;stroke-width:1.07px;stroke-miterlimit:4;"/>
        <path d="M86,111.333l64,-44.136l-39.316,33.18l-24.684,10.956Z" style="fill:#cd80a2;fill-opacity:0.9;fill-rule:nonzero;stroke:#fff;stroke-width:1.07px;stroke-miterlimit:4;"/>
        <path d="M213.735,171.557l-24.106,11.408l-39.629,32.718l63.735,-44.126Z" style="fill:#c05d89;fill-opacity:0.9;fill-rule:nonzero;stroke:#fff;stroke-width:1.07px;stroke-miterlimit:4;"/>
        <path d="M86.265,171.557l63.735,44.126l-39.629,-32.718l-24.106,-11.408Z" style="fill:#990040;fill-opacity:0.9;fill-rule:nonzero;stroke:#fff;stroke-width:1.07px;stroke-miterlimit:4;"/>
        <path d="M214,111.333l-24.371,71.632l24.106,-11.408l0.265,-60.224Z" style="fill:#e3b7ca;fill-opacity:0.9;fill-rule:nonzero;stroke:#fff;stroke-width:1.07px;stroke-miterlimit:4;"/>
        <path d="M86.265,171.557l24.106,11.408l-24.371,-71.632l0.265,60.224Z" style="fill:#a41655;fill-opacity:0.9;fill-rule:nonzero;stroke:#fff;stroke-width:1.07px;stroke-miterlimit:4;"/>
        <path d="M110.371,182.965l39.629,32.718l39.629,-32.718l-79.258,0Z" style="fill:#b1386d;fill-opacity:0.9;fill-rule:nonzero;stroke:#fff;stroke-width:1.07px;stroke-miterlimit:4;"/>
        <path d="M150,118.171l64,-6.838l-64,-44.136l0,50.974Z" style="fill:#f5e5ec;fill-opacity:0.9;fill-rule:nonzero;stroke:#fff;stroke-width:1.07px;stroke-miterlimit:4;"/>
        <path d="M150,118.171l0,-50.974l-64,44.136l64,6.838Z" style="fill:#dda7bf;fill-opacity:0.9;fill-rule:nonzero;stroke:#fff;stroke-width:1.07px;stroke-miterlimit:4;"/>
        <path d="M150,118.171l-64,-6.838l24.371,71.632l39.629,-64.794Z" style="fill:#c3668f;fill-opacity:0.9;fill-rule:nonzero;stroke:#fff;stroke-width:1.07px;stroke-miterlimit:4;"/>
        <path d="M150,118.171l39.629,64.794l24.371,-71.632l-64,6.838Z" style="fill:#eac9d8;fill-opacity:0.9;fill-rule:nonzero;stroke:#fff;stroke-width:1.07px;stroke-miterlimit:4;"/>
        <path d="M150,118.171l-39.629,64.794l79.258,0l-39.629,-64.794Z" style="fill:#cb7b9e;fill-opacity:0.9;fill-rule:nonzero;stroke:#fff;stroke-width:1.07px;stroke-miterlimit:4;"/>
    </g>
    <path d="M39.4,282.643c-4.64,-0 -8.633,-0.754 -11.98,-2.26c-3.347,-1.507 -6.393,-3.807 -9.14,-6.9l8.12,-8.12c1.813,2.106 3.827,3.733 6.04,4.88c2.213,1.146 4.8,1.72 7.76,1.72c2.64,-0 4.7,-0.487 6.18,-1.46c1.48,-0.974 2.22,-2.314 2.22,-4.02c0,-1.52 -0.48,-2.767 -1.44,-3.74c-0.96,-0.974 -2.227,-1.807 -3.8,-2.5c-1.573,-0.694 -3.307,-1.354 -5.2,-1.98c-1.893,-0.627 -3.78,-1.36 -5.66,-2.2c-1.88,-0.84 -3.607,-1.88 -5.18,-3.12c-1.573,-1.24 -2.84,-2.814 -3.8,-4.72c-0.96,-1.907 -1.44,-4.287 -1.44,-7.14c0,-3.494 0.847,-6.487 2.54,-8.98c1.693,-2.494 4.033,-4.4 7.02,-5.72c2.987,-1.32 6.413,-1.98 10.28,-1.98c3.973,-0 7.6,0.7 10.88,2.1c3.28,1.4 5.973,3.286 8.08,5.66l-8.16,8.12c-1.68,-1.76 -3.393,-3.067 -5.14,-3.92c-1.747,-0.854 -3.7,-1.28 -5.86,-1.28c-2.213,-0 -3.96,0.413 -5.24,1.24c-1.28,0.826 -1.92,2.013 -1.92,3.56c0,1.413 0.48,2.56 1.44,3.44c0.96,0.88 2.227,1.646 3.8,2.3c1.573,0.653 3.307,1.3 5.2,1.94c1.893,0.64 3.78,1.38 5.66,2.22c1.88,0.84 3.607,1.913 5.18,3.22c1.573,1.306 2.84,2.96 3.8,4.96c0.96,2 1.44,4.466 1.44,7.4c0,5.413 -1.92,9.646 -5.76,12.7c-3.84,3.053 -9.147,4.58 -15.92,4.58Z" style="fill:#fff;fill-rule:nonzero;"/>
    <path d="M85,281.763l-21.76,-56.48l13.48,-0l16.56,45.68l-5.52,-0l16.76,-45.68l13.28,-0l-22,56.48l-10.8,-0Z" style="fill:#fff;fill-rule:nonzero;"/>
    <path d="M147.28,282.643c-4.133,-0 -7.993,-0.74 -11.58,-2.22c-3.587,-1.48 -6.72,-3.547 -9.4,-6.2c-2.68,-2.654 -4.773,-5.747 -6.28,-9.28c-1.507,-3.534 -2.26,-7.354 -2.26,-11.46c0,-4.134 0.773,-7.96 2.32,-11.48c1.547,-3.52 3.693,-6.6 6.44,-9.24c2.747,-2.64 5.953,-4.694 9.62,-6.16c3.667,-1.467 7.607,-2.2 11.82,-2.2c4.853,-0 9.273,0.88 13.26,2.64c3.987,1.76 7.273,4.2 9.86,7.32l-8.52,8.52c-1.813,-2.32 -3.947,-4.074 -6.4,-5.26c-2.453,-1.187 -5.227,-1.78 -8.32,-1.78c-3.333,-0 -6.3,0.733 -8.9,2.2c-2.6,1.466 -4.64,3.52 -6.12,6.16c-1.48,2.64 -2.22,5.72 -2.22,9.24c0,3.52 0.72,6.613 2.16,9.28c1.44,2.666 3.413,4.746 5.92,6.24c2.507,1.493 5.387,2.24 8.64,2.24c3.307,-0 6.127,-0.62 8.46,-1.86c2.333,-1.24 4.12,-3.054 5.36,-5.44c1.24,-2.387 1.86,-5.274 1.86,-8.66l8.36,5.56l-25.2,-0.4l0,-10.6l29.64,-0l0,1.84c0,6.746 -1.213,12.426 -3.64,17.04c-2.427,4.613 -5.78,8.093 -10.06,10.44c-4.28,2.346 -9.22,3.52 -14.82,3.52Z" style="fill:#fff;fill-rule:nonzero;"/>
    <path d="M198.16,282.643c-3.893,-0 -7.467,-0.68 -10.72,-2.04c-3.253,-1.36 -6,-3.32 -8.24,-5.88l8.12,-8.04c1.013,1.493 2.493,2.7 4.44,3.62c1.947,0.92 4.013,1.38 6.2,1.38c1.947,-0 3.647,-0.347 5.1,-1.04c1.453,-0.694 2.593,-1.68 3.42,-2.96c0.827,-1.28 1.24,-2.787 1.24,-4.52c0,-1.787 -0.42,-3.307 -1.26,-4.56c-0.84,-1.254 -2.04,-2.22 -3.6,-2.9c-1.56,-0.68 -3.433,-1.02 -5.62,-1.02c-1.013,-0 -2.073,0.066 -3.18,0.2c-1.107,0.133 -2.02,0.333 -2.74,0.6l5.52,-6.96c1.493,-0.427 2.92,-0.787 4.28,-1.08c1.36,-0.294 2.613,-0.44 3.76,-0.44c2.88,-0 5.473,0.68 7.78,2.04c2.307,1.36 4.133,3.28 5.48,5.76c1.347,2.48 2.02,5.413 2.02,8.8c0,3.76 -0.913,7.073 -2.74,9.94c-1.827,2.866 -4.387,5.1 -7.68,6.7c-3.293,1.6 -7.153,2.4 -11.58,2.4Zm-6.84,-27.16l0,-7l13.76,-16.12l14.04,-0.08l-14.28,16.28l-13.52,6.92Zm-8.6,-19.52l0,-10.68l36.4,-0l0,7l-9.84,3.68l-26.56,-0Z" style="fill:#fff;fill-rule:nonzero;"/>
    <path d="M236.6,281.763l0,-11l14,-0c3.413,-0 6.393,-0.687 8.94,-2.06c2.547,-1.374 4.52,-3.36 5.92,-5.96c1.4,-2.6 2.1,-5.7 2.1,-9.3c-0,-3.574 -0.713,-6.64 -2.14,-9.2c-1.427,-2.56 -3.407,-4.527 -5.94,-5.9c-2.533,-1.374 -5.493,-2.06 -8.88,-2.06l-14.4,-0l-0,-11l14.52,-0c4.267,-0 8.207,0.686 11.82,2.06c3.613,1.373 6.76,3.32 9.44,5.84c2.68,2.52 4.76,5.5 6.24,8.94c1.48,3.44 2.22,7.24 2.22,11.4c-0,4.133 -0.74,7.926 -2.22,11.38c-1.48,3.453 -3.553,6.44 -6.22,8.96c-2.667,2.52 -5.8,4.466 -9.4,5.84c-3.6,1.373 -7.507,2.06 -11.72,2.06l-14.28,-0Zm-8.52,-0l-0,-56.48l12.6,-0l-0,56.48l-12.6,-0Z" style="fill:#fff;fill-rule:nonzero;"/>
</svg>
