<?xml version="1.0" encoding="utf-8" ?>
<svg baseProfile="full" height="512" version="1.1" viewBox="-0.5 -0.5 1.0 1.0" width="512" xmlns="http://www.w3.org/2000/svg" xmlns:ev="http://www.w3.org/2001/xml-events" xmlns:xlink="http://www.w3.org/1999/xlink"><defs><clipPath id="id1"><rect height="1.0" width="1.0" x="-0.5" y="-0.5" /></clipPath></defs><g clip-path="url(#id1)" fill="#00B2A6" fill-opacity="0.85" stroke="black" stroke-linejoin="round" stroke-width="0.005"><polygon points="-0.01667,0.13645 -0.17792,0.16094 -0.13743,0.00294" /><polygon points="0.15425,0.15376 0.2755,0.04448 0.23547,0.2029" /><polygon points="-0.01671,-0.27856 0.15461,-0.26161 0.27576,-0.12767 0.2755,0.04448 0.15425,0.15376 -0.01667,0.13645 -0.13743,0.00294 -0.13756,-0.16886" /><polygon points="-0.01671,-0.27856 -0.13756,-0.16886 -0.17833,-0.25458" /><polygon points="0.15461,-0.26161 0.23601,-0.21348 0.27576,-0.12767" /><polygon points="-0.27676,0.12814 -0.27703,-0.04473 -0.23614,-0.20348 -0.17833,-0.25458 -0.13756,-0.16886 -0.13743,0.00294 -0.17792,0.16094 -0.2356,0.21311" /><polygon points="-0.15517,0.26256 -0.2356,0.21311 -0.17792,0.16094 -0.01667,0.13645 0.15425,0.15376 0.23547,0.2029 0.17884,0.2553 0.0168,0.28011" /><polygon points="-0.15553,-0.15503 0.01684,-0.13784 0.17926,-0.16214 0.23601,-0.21348 0.15461,-0.26161 -0.01671,-0.27856 -0.17833,-0.25458 -0.23614,-0.20348" /><polygon points="0.1387,0.17025 0.17884,0.2553 0.23547,0.2029 0.2755,0.04448 0.27576,-0.12767 0.23601,-0.21348 0.17926,-0.16214 0.13883,-0.00297" /><polygon points="-0.15517,0.26256 -0.27676,0.12814 -0.2356,0.21311" /><polygon points="0.0168,0.28011 0.17884,0.2553 0.1387,0.17025" /><polygon points="-0.15553,-0.15503 -0.27703,-0.04473 -0.27676,0.12814 -0.15517,0.26256 0.0168,0.28011 0.1387,0.17025 0.13883,-0.00297 0.01684,-0.13784" /><polygon points="-0.15553,-0.15503 -0.23614,-0.20348 -0.27703,-0.04473" /><polygon points="0.01684,-0.13784 0.13883,-0.00297 0.17926,-0.16214" /></g></svg>
