<?xml version="1.0" encoding="utf-8" ?>
<svg baseProfile="full" height="512" version="1.1" viewBox="-0.5 -0.5 1.0 1.0" width="512" xmlns="http://www.w3.org/2000/svg" xmlns:ev="http://www.w3.org/2001/xml-events" xmlns:xlink="http://www.w3.org/1999/xlink"><defs><clipPath id="id2"><rect height="1.0" width="1.0" x="-0.5" y="-0.5" /></clipPath></defs><g clip-path="url(#id2)"><polygon fill="#006F58" fill-opacity="0.85" points="-0.00894459720458,0.1666847126927 -0.22684935239736,0.19971041094847 -0.16647429124051,-0.01225192313759" stroke="black" stroke-linejoin="round" stroke-width="0.005" /><polygon fill="#00A496" fill-opacity="0.85" points="0.21413485517175,0.19542050487626 0.37262108920797,0.05665491400306 0.31291035792326,0.26944596214546" stroke="black" stroke-linejoin="round" stroke-width="0.005" /><polygon fill="#009A8B" fill-opacity="0.85" points="-0.00897483347021,-0.37679663980377 0.21485973039487,-0.34872562553935 0.37314356676129,-0.16893236586818 0.37262108920797,0.05665491400306 0.21413485517175,0.19542050487626 -0.00894459720458,0.1666847126927 -0.16647429124051,-0.01225192313759 -0.16670692873842,-0.23717442913629" stroke="black" stroke-linejoin="round" stroke-width="0.005" /><polygon fill="#00A496" fill-opacity="0.85" points="-0.00897483347021,-0.37679663980377 -0.16670692873842,-0.23717442913629 -0.22761742842104,-0.34453494001501" stroke="black" stroke-linejoin="round" stroke-width="0.005" /><polygon fill="#008370" fill-opacity="0.85" points="-0.37467925510253,0.16962761426003 -0.37520752447818,-0.05704816675244 -0.31406658201701,-0.27044158247412 -0.22761742842104,-0.34453494001501 -0.16670692873842,-0.23717442913629 -0.16647429124051,-0.01225192313759 -0.22684935239736,0.19971041094847 -0.31300288780088,0.27555703681833" stroke="black" stroke-linejoin="round" stroke-width="0.005" /><polygon fill="#008370" fill-opacity="0.85" points="-0.21574399482379,0.35016082079697 -0.31300288780088,0.27555703681833 -0.22684935239736,0.19971041094847 -0.00894459720458,0.1666847126927 0.21413485517175,0.19542050487626 0.31291035792326,0.26944596214546 0.22845848960113,0.34580801899337 0.00903712953048,0.37941205838074" stroke="black" stroke-linejoin="round" stroke-width="0.005" /><polygon fill="#84DAD4" fill-opacity="0.85" points="0.21485973039487,-0.34872562553935 0.31397342226604,-0.27641146216638 0.37314356676129,-0.16893236586818" stroke="black" stroke-linejoin="round" stroke-width="0.005" /><polygon fill="#008977" fill-opacity="0.85" points="-0.21574399482379,0.35016082079697 -0.37467925510253,0.16962761426003 -0.31300288780088,0.27555703681833" stroke="black" stroke-linejoin="round" stroke-width="0.005" /><polygon fill="#99E0DB" fill-opacity="0.85" points="-0.21647982400549,-0.19756053477958 0.00906799570289,-0.16898427328406 0.22923751954995,-0.20181287162742 0.31397342226604,-0.27641146216638 0.21485973039487,-0.34872562553935 -0.00897483347021,-0.37679663980377 -0.22761742842104,-0.34453494001501 -0.31406658201701,-0.27044158247412" stroke="black" stroke-linejoin="round" stroke-width="0.005" /><polygon fill="#99E0DB" fill-opacity="0.85" points="0.16853251921479,0.2397717019812 0.22845848960113,0.34580801899337 0.31291035792326,0.26944596214546 0.37262108920797,0.05665491400306 0.37314356676129,-0.16893236586818 0.31397342226604,-0.27641146216638 0.22923751954995,-0.20181287162742 0.16877094888491,0.0124209490738" stroke="black" stroke-linejoin="round" stroke-width="0.005" /><polygon fill="#2CBFB5" fill-opacity="0.85" points="0.00903712953048,0.37941205838074 0.22845848960113,0.34580801899337 0.16853251921479,0.2397717019812" stroke="black" stroke-linejoin="round" stroke-width="0.005" /><polygon fill="#4CC9C0" fill-opacity="0.85" points="-0.21647982400549,-0.19756053477958 -0.37520752447818,-0.05704816675244 -0.37467925510253,0.16962761426003 -0.21574399482379,0.35016082079697 0.00903712953048,0.37941205838074 0.16853251921479,0.2397717019812 0.16877094888491,0.0124209490738 0.00906799570289,-0.16898427328406" stroke="black" stroke-linejoin="round" stroke-width="0.005" /><polygon fill="#2CBFB5" fill-opacity="0.85" points="-0.21647982400549,-0.19756053477958 -0.31406658201701,-0.27044158247412 -0.37520752447818,-0.05704816675244" stroke="black" stroke-linejoin="round" stroke-width="0.005" /><polygon fill="#DCF4F3" fill-opacity="0.85" points="0.00906799570289,-0.16898427328406 0.16877094888491,0.0124209490738 0.22923751954995,-0.20181287162742" stroke="black" stroke-linejoin="round" stroke-width="0.005" /></g></svg>
