<?xml version="1.0" encoding="utf-8" ?>
<svg baseProfile="full" height="512" version="1.1" viewBox="-0.5 -0.5 1.0 1.0" width="512" xmlns="http://www.w3.org/2000/svg" xmlns:ev="http://www.w3.org/2001/xml-events" xmlns:xlink="http://www.w3.org/1999/xlink"><defs><clipPath id="id5"><rect height="1.0" width="1.0" x="-0.5" y="-0.5" /></clipPath></defs><g clip-path="url(#id5)"><polygon fill="#006F58" fill-opacity="0.85" points="-0.0089445972,0.1666847127 -0.2268493524,0.1997104109 -0.1664742912,-0.0122519231" stroke="black" stroke-linejoin="round" stroke-width="0.005" /><polygon fill="#00A496" fill-opacity="0.85" points="0.2141348552,0.1954205049 0.3726210892,0.056654914 0.3129103579,0.2694459621" stroke="black" stroke-linejoin="round" stroke-width="0.005" /><polygon fill="#009A8B" fill-opacity="0.85" points="-0.0089748335,-0.3767966398 0.2148597304,-0.3487256255 0.3731435668,-0.1689323659 0.3726210892,0.056654914 0.2141348552,0.1954205049 -0.0089445972,0.1666847127 -0.1664742912,-0.0122519231 -0.1667069287,-0.2371744291" stroke="black" stroke-linejoin="round" stroke-width="0.005" /><polygon fill="#00A496" fill-opacity="0.85" points="-0.0089748335,-0.3767966398 -0.1667069287,-0.2371744291 -0.2276174284,-0.34453494" stroke="black" stroke-linejoin="round" stroke-width="0.005" /><polygon fill="#008370" fill-opacity="0.85" points="-0.3746792551,0.1696276143 -0.3752075245,-0.0570481668 -0.314066582,-0.2704415825 -0.2276174284,-0.34453494 -0.1667069287,-0.2371744291 -0.1664742912,-0.0122519231 -0.2268493524,0.1997104109 -0.3130028878,0.2755570368" stroke="black" stroke-linejoin="round" stroke-width="0.005" /><polygon fill="#008370" fill-opacity="0.85" points="-0.2157439948,0.3501608208 -0.3130028878,0.2755570368 -0.2268493524,0.1997104109 -0.0089445972,0.1666847127 0.2141348552,0.1954205049 0.3129103579,0.2694459621 0.2284584896,0.345808019 0.0090371295,0.3794120584" stroke="black" stroke-linejoin="round" stroke-width="0.005" /><polygon fill="#84DAD4" fill-opacity="0.85" points="0.2148597304,-0.3487256255 0.3139734223,-0.2764114622 0.3731435668,-0.1689323659" stroke="black" stroke-linejoin="round" stroke-width="0.005" /><polygon fill="#008977" fill-opacity="0.85" points="-0.2157439948,0.3501608208 -0.3746792551,0.1696276143 -0.3130028878,0.2755570368" stroke="black" stroke-linejoin="round" stroke-width="0.005" /><polygon fill="#99E0DB" fill-opacity="0.85" points="-0.216479824,-0.1975605348 0.0090679957,-0.1689842733 0.2292375195,-0.2018128716 0.3139734223,-0.2764114622 0.2148597304,-0.3487256255 -0.0089748335,-0.3767966398 -0.2276174284,-0.34453494 -0.314066582,-0.2704415825" stroke="black" stroke-linejoin="round" stroke-width="0.005" /><polygon fill="#99E0DB" fill-opacity="0.85" points="0.1685325192,0.239771702 0.2284584896,0.345808019 0.3129103579,0.2694459621 0.3726210892,0.056654914 0.3731435668,-0.1689323659 0.3139734223,-0.2764114622 0.2292375195,-0.2018128716 0.1687709489,0.0124209491" stroke="black" stroke-linejoin="round" stroke-width="0.005" /><polygon fill="#2CBFB5" fill-opacity="0.85" points="0.0090371295,0.3794120584 0.2284584896,0.345808019 0.1685325192,0.239771702" stroke="black" stroke-linejoin="round" stroke-width="0.005" /><polygon fill="#4CC9C0" fill-opacity="0.85" points="-0.216479824,-0.1975605348 -0.3752075245,-0.0570481668 -0.3746792551,0.1696276143 -0.2157439948,0.3501608208 0.0090371295,0.3794120584 0.1685325192,0.239771702 0.1687709489,0.0124209491 0.0090679957,-0.1689842733" stroke="black" stroke-linejoin="round" stroke-width="0.005" /><polygon fill="#2CBFB5" fill-opacity="0.85" points="-0.216479824,-0.1975605348 -0.314066582,-0.2704415825 -0.3752075245,-0.0570481668" stroke="black" stroke-linejoin="round" stroke-width="0.005" /><polygon fill="#DCF4F3" fill-opacity="0.85" points="0.0090679957,-0.1689842733 0.1687709489,0.0124209491 0.2292375195,-0.2018128716" stroke="black" stroke-linejoin="round" stroke-width="0.005" /></g></svg>
