<?xml version="1.0" encoding="utf-8" ?>
<svg baseProfile="full" height="512" version="1.1" viewBox="-0.5 -0.5 1.0 1.0" width="512" xmlns="http://www.w3.org/2000/svg" xmlns:ev="http://www.w3.org/2001/xml-events" xmlns:xlink="http://www.w3.org/1999/xlink"><defs><clipPath id="id4"><rect height="1.0" width="1.0" x="-0.5" y="-0.5" /></clipPath></defs><g clip-path="url(#id4)"><polygon fill="#006F58" fill-opacity="0.85" points="0.1191758772,0.0688062248 -0.1191758772,0.0688062248 0.0,-0.1376124496" stroke="black" stroke-linejoin="round" stroke-width="0.005" /><polygon fill="#00A496" fill-opacity="0.85" points="0.2884087339,0.1665128602 0.4092650532,0.097874228 0.2893940944,0.305496819" stroke="black" stroke-linejoin="round" stroke-width="0.005" /><polygon fill="#008370" fill-opacity="0.85" points="-0.4092650532,0.097874228 -0.4102561746,-0.098111251 -0.2900949231,-0.3062366438 -0.1198709588,-0.403371047 0.0,-0.3330257203 0.0,-0.1376124496 -0.1191758772,0.0688062248 -0.2884087339,0.1665128602" stroke="black" stroke-linejoin="round" stroke-width="0.005" /><polygon fill="#009A8B" fill-opacity="0.85" points="0.1198709588,-0.403371047 0.2900949231,-0.3062366438 0.4102561746,-0.098111251 0.4092650532,0.097874228 0.2884087339,0.1665128602 0.1191758772,0.0688062248 0.0,-0.1376124496 0.0,-0.3330257203" stroke="black" stroke-linejoin="round" stroke-width="0.005" /><polygon fill="#008370" fill-opacity="0.85" points="-0.2893940944,0.305496819 -0.2884087339,0.1665128602 -0.1191758772,0.0688062248 0.1191758772,0.0688062248 0.2884087339,0.1665128602 0.2893940944,0.305496819 0.1201612515,0.4043478948 -0.1201612515,0.4043478948" stroke="black" stroke-linejoin="round" stroke-width="0.005" /><polygon fill="#00A496" fill-opacity="0.85" points="0.1198709588,-0.403371047 0.0,-0.3330257203 -0.1198709588,-0.403371047" stroke="black" stroke-linejoin="round" stroke-width="0.005" /><polygon fill="#008977" fill-opacity="0.85" points="-0.2893940944,0.305496819 -0.4092650532,0.097874228 -0.2884087339,0.1665128602" stroke="black" stroke-linejoin="round" stroke-width="0.005" /><polygon fill="#84DAD4" fill-opacity="0.85" points="0.2900949231,-0.3062366438 0.2910918591,-0.1680619632 0.4102561746,-0.098111251" stroke="black" stroke-linejoin="round" stroke-width="0.005" /><polygon fill="#2CBFB5" fill-opacity="0.85" points="-0.1201612515,0.4043478948 0.1201612515,0.4043478948 0.0,0.3361239264" stroke="black" stroke-linejoin="round" stroke-width="0.005" /><polygon fill="#4CC9C0" fill-opacity="0.85" points="-0.2910918591,-0.1680619632 -0.4102561746,-0.098111251 -0.4092650532,0.097874228 -0.2893940944,0.305496819 -0.1201612515,0.4043478948 0.0,0.3361239264 0.0,0.1395662395 -0.1208679089,-0.0697831197" stroke="black" stroke-linejoin="round" stroke-width="0.005" /><polygon fill="#99E0DB" fill-opacity="0.85" points="-0.2910918591,-0.1680619632 -0.1208679089,-0.0697831197 0.1208679089,-0.0697831197 0.2910918591,-0.1680619632 0.2900949231,-0.3062366438 0.1198709588,-0.403371047 -0.1198709588,-0.403371047 -0.2900949231,-0.3062366438" stroke="black" stroke-linejoin="round" stroke-width="0.005" /><polygon fill="#99E0DB" fill-opacity="0.85" points="0.0,0.3361239264 0.1201612515,0.4043478948 0.2893940944,0.305496819 0.4092650532,0.097874228 0.4102561746,-0.098111251 0.2910918591,-0.1680619632 0.1208679089,-0.0697831197 0.0,0.1395662395" stroke="black" stroke-linejoin="round" stroke-width="0.005" /><polygon fill="#2CBFB5" fill-opacity="0.85" points="-0.2910918591,-0.1680619632 -0.2900949231,-0.3062366438 -0.4102561746,-0.098111251" stroke="black" stroke-linejoin="round" stroke-width="0.005" /><polygon fill="#DCF4F3" fill-opacity="0.85" points="-0.1208679089,-0.0697831197 0.0,0.1395662395 0.1208679089,-0.0697831197" stroke="black" stroke-linejoin="round" stroke-width="0.005" /></g></svg>
