<?xml version="1.0" encoding="utf-8" ?>
<svg baseProfile="full" height="512" version="1.1" viewBox="-0.5 -0.5 1.0 1.0" width="512" xmlns="http://www.w3.org/2000/svg" xmlns:ev="http://www.w3.org/2001/xml-events" xmlns:xlink="http://www.w3.org/1999/xlink"><defs><clipPath id="id1"><rect height="1.0" width="1.0" x="-0.5" y="-0.5" /></clipPath></defs><g clip-path="url(#id1)"><polygon fill="#006F58" fill-opacity="0.85" points="0.11917587719694,0.06880622478057 -0.11917587719694,0.06880622478057 0.0,-0.13761244956113" stroke="black" stroke-linejoin="round" stroke-width="0.005" /><polygon fill="#00A496" fill-opacity="0.85" points="0.28840873393122,0.16651286017183 0.40926505320469,0.0978742279972 0.28939409442371,0.30549681895785" stroke="black" stroke-linejoin="round" stroke-width="0.005" /><polygon fill="#008370" fill-opacity="0.85" points="-0.40926505320469,0.0978742279972 -0.41025617463296,-0.09811125103125 -0.29009492310662,-0.30623664377594 -0.11987095878098,-0.40337104695505 0.0,-0.33302572034366 0.0,-0.13761244956113 -0.11917587719694,0.06880622478057 -0.28840873393122,0.16651286017183" stroke="black" stroke-linejoin="round" stroke-width="0.005" /><polygon fill="#009A8B" fill-opacity="0.85" points="0.11987095878098,-0.40337104695505 0.29009492310662,-0.30623664377594 0.41025617463296,-0.09811125103125 0.40926505320469,0.0978742279972 0.28840873393122,0.16651286017183 0.11917587719694,0.06880622478057 0.0,-0.13761244956113 0.0,-0.33302572034366" stroke="black" stroke-linejoin="round" stroke-width="0.005" /><polygon fill="#008370" fill-opacity="0.85" points="-0.28939409442371,0.30549681895785 -0.28840873393122,0.16651286017183 -0.11917587719694,0.06880622478057 0.11917587719694,0.06880622478057 0.28840873393122,0.16651286017183 0.28939409442371,0.30549681895785 0.12016125152634,0.40434789480719 -0.12016125152634,0.40434789480719" stroke="black" stroke-linejoin="round" stroke-width="0.005" /><polygon fill="#00A496" fill-opacity="0.85" points="0.11987095878098,-0.40337104695505 0.0,-0.33302572034366 -0.11987095878098,-0.40337104695505" stroke="black" stroke-linejoin="round" stroke-width="0.005" /><polygon fill="#008977" fill-opacity="0.85" points="-0.28939409442371,0.30549681895785 -0.40926505320469,0.0978742279972 -0.28840873393122,0.16651286017183" stroke="black" stroke-linejoin="round" stroke-width="0.005" /><polygon fill="#84DAD4" fill-opacity="0.85" points="0.29009492310662,-0.30623664377594 0.29109185906583,-0.16806196319057 0.41025617463296,-0.09811125103125" stroke="black" stroke-linejoin="round" stroke-width="0.005" /><polygon fill="#2CBFB5" fill-opacity="0.85" points="-0.12016125152634,0.40434789480719 0.12016125152634,0.40434789480719 0.0,0.33612392638113" stroke="black" stroke-linejoin="round" stroke-width="0.005" /><polygon fill="#4CC9C0" fill-opacity="0.85" points="-0.29109185906583,-0.16806196319057 -0.41025617463296,-0.09811125103125 -0.40926505320469,0.0978742279972 -0.28939409442371,0.30549681895785 -0.12016125152634,0.40434789480719 0.0,0.33612392638113 0.0,0.13956623948436 -0.12086790890411,-0.06978311974218" stroke="black" stroke-linejoin="round" stroke-width="0.005" /><polygon fill="#99E0DB" fill-opacity="0.85" points="-0.29109185906583,-0.16806196319057 -0.12086790890411,-0.06978311974218 0.12086790890411,-0.06978311974218 0.29109185906583,-0.16806196319057 0.29009492310662,-0.30623664377594 0.11987095878098,-0.40337104695505 -0.11987095878098,-0.40337104695505 -0.29009492310662,-0.30623664377594" stroke="black" stroke-linejoin="round" stroke-width="0.005" /><polygon fill="#99E0DB" fill-opacity="0.85" points="0.0,0.33612392638113 0.12016125152634,0.40434789480719 0.28939409442371,0.30549681895785 0.40926505320469,0.0978742279972 0.41025617463296,-0.09811125103125 0.29109185906583,-0.16806196319057 0.12086790890411,-0.06978311974218 0.0,0.13956623948436" stroke="black" stroke-linejoin="round" stroke-width="0.005" /><polygon fill="#2CBFB5" fill-opacity="0.85" points="-0.29109185906583,-0.16806196319057 -0.29009492310662,-0.30623664377594 -0.41025617463296,-0.09811125103125" stroke="black" stroke-linejoin="round" stroke-width="0.005" /><polygon fill="#DCF4F3" fill-opacity="0.85" points="-0.12086790890411,-0.06978311974218 0.0,0.13956623948436 0.12086790890411,-0.06978311974218" stroke="black" stroke-linejoin="round" stroke-width="0.005" /></g></svg>
