<?xml version="1.0" encoding="utf-8" ?>
<svg baseProfile="full" height="512" version="1.1" viewBox="-0.5 -0.5 1.0 1.0" width="512" xmlns="http://www.w3.org/2000/svg" xmlns:ev="http://www.w3.org/2001/xml-events" xmlns:xlink="http://www.w3.org/1999/xlink"><defs><clipPath id="id3"><rect height="1.0" width="1.0" x="-0.5" y="-0.5" /></clipPath></defs><g clip-path="url(#id3)"><polygon fill="#006F58" fill-opacity="0.85" points="0.06046720446702,0.19570310850832 -0.17351382308793,0.20836652589968 -0.07977676829536,0.00820390736596" stroke="black" stroke-linejoin="round" stroke-width="0.005" /><polygon fill="#009A8B" fill-opacity="0.85" points="0.06063003347419,-0.36005209848549 0.26016842295795,-0.3253286765034 0.40148488350104,-0.13701902169894 0.40103620719163,0.09399332324241 0.25946815240809,0.23157229080375 0.06046720446702,0.19570310850832 -0.07977676829536,0.00820390736596 -0.07986554238873,-0.22166267696863" stroke="black" stroke-linejoin="round" stroke-width="0.005" /><polygon fill="#00A496" fill-opacity="0.85" points="0.06063003347419,-0.36005209848549 -0.07986554238873,-0.22166267696863 -0.17398143830298,-0.34779323308837" stroke="black" stroke-linejoin="round" stroke-width="0.005" /><polygon fill="#00A496" fill-opacity="0.85" points="0.25946815240809,0.23157229080375 0.40103620719163,0.09399332324241 0.30755364985008,0.29537352312991" stroke="black" stroke-linejoin="round" stroke-width="0.005" /><polygon fill="#008370" fill-opacity="0.85" points="-0.40212112419114,0.13723615833473 -0.40257223274363,-0.09435333100139 -0.30775543811677,-0.29556731992371 -0.17398143830298,-0.34779323308837 -0.07986554238873,-0.22166267696863 -0.07977676829536,0.00820390736596 -0.17351382308793,0.20836652589968 -0.30692550255682,0.26231533281464" stroke="black" stroke-linejoin="round" stroke-width="0.005" /><polygon fill="#008370" fill-opacity="0.85" points="-0.26099366448924,0.3263606031766 -0.30692550255682,0.26231533281464 -0.17351382308793,0.20836652589968 0.06046720446702,0.19570310850832 0.25946815240809,0.23157229080375 0.30755364985008,0.29537352312991 0.17503935128598,0.34990802751856 -0.06109536787713,0.3628154917855" stroke="black" stroke-linejoin="round" stroke-width="0.005" /><polygon fill="#84DAD4" fill-opacity="0.85" points="0.26016842295795,-0.3253286765034 0.30838699055532,-0.2635644004468 0.40148488350104,-0.13701902169894" stroke="black" stroke-linejoin="round" stroke-width="0.005" /><polygon fill="#008977" fill-opacity="0.85" points="-0.26099366448924,0.3263606031766 -0.40212112419114,0.13723615833473 -0.30692550255682,0.26231533281464" stroke="black" stroke-linejoin="round" stroke-width="0.005" /><polygon fill="#99E0DB" fill-opacity="0.85" points="-0.26170220480282,-0.23356615643244 -0.06126160220481,-0.19827418994082 0.17551523643997,-0.21076995139991 0.30838699055532,-0.2635644004468 0.26016842295795,-0.3253286765034 0.06063003347419,-0.36005209848549 -0.17398143830298,-0.34779323308837 -0.30775543811677,-0.29556731992371" stroke="black" stroke-linejoin="round" stroke-width="0.005" /><polygon fill="#99E0DB" fill-opacity="0.85" points="0.08086173280865,0.22442755189018 0.17503935128598,0.34990802751856 0.30755364985008,0.29537352312991 0.40103620719163,0.09399332324241 0.40148488350104,-0.13701902169894 0.30838699055532,-0.2635644004468 0.17551523643997,-0.21076995139991 0.08095293935837,-0.00832485985192" stroke="black" stroke-linejoin="round" stroke-width="0.005" /><polygon fill="#2CBFB5" fill-opacity="0.85" points="-0.26170220480282,-0.23356615643244 -0.30775543811677,-0.29556731992371 -0.40257223274363,-0.09435333100139" stroke="black" stroke-linejoin="round" stroke-width="0.005" /><polygon fill="#2CBFB5" fill-opacity="0.85" points="-0.06109536787713,0.3628154917855 0.17503935128598,0.34990802751856 0.08086173280865,0.22442755189018" stroke="black" stroke-linejoin="round" stroke-width="0.005" /><polygon fill="#4CC9C0" fill-opacity="0.85" points="-0.26170220480282,-0.23356615643244 -0.40257223274363,-0.09435333100139 -0.40212112419114,0.13723615833473 -0.26099366448924,0.3263606031766 -0.06109536787713,0.3628154917855 0.08086173280865,0.22442755189018 0.08095293935837,-0.00832485985192 -0.06126160220481,-0.19827418994082" stroke="black" stroke-linejoin="round" stroke-width="0.005" /><polygon fill="#DCF4F3" fill-opacity="0.85" points="-0.06126160220481,-0.19827418994082 0.08095293935837,-0.00832485985192 0.17551523643997,-0.21076995139991" stroke="black" stroke-linejoin="round" stroke-width="0.005" /></g></svg>
