<?xml version="1.0" encoding="utf-8" ?>
<svg baseProfile="full" height="512" version="1.1" viewBox="-0.5 -0.5 1.0 1.0" width="512" xmlns="http://www.w3.org/2000/svg" xmlns:ev="http://www.w3.org/2001/xml-events" xmlns:xlink="http://www.w3.org/1999/xlink"><defs><clipPath id="id6"><rect height="1.0" width="1.0" x="-0.5" y="-0.5" /></clipPath></defs><g clip-path="url(#id6)"><polygon fill="#006F58" fill-opacity="0.85" points="0.0604672045,0.1957031085 -0.1735138231,0.2083665259 -0.0797767683,0.0082039074" stroke="black" stroke-linejoin="round" stroke-width="0.005" /><polygon fill="#009A8B" fill-opacity="0.85" points="0.0606300335,-0.3600520985 0.260168423,-0.3253286765 0.4014848835,-0.1370190217 0.4010362072,0.0939933232 0.2594681524,0.2315722908 0.0604672045,0.1957031085 -0.0797767683,0.0082039074 -0.0798655424,-0.221662677" stroke="black" stroke-linejoin="round" stroke-width="0.005" /><polygon fill="#00A496" fill-opacity="0.85" points="0.0606300335,-0.3600520985 -0.0798655424,-0.221662677 -0.1739814383,-0.3477932331" stroke="black" stroke-linejoin="round" stroke-width="0.005" /><polygon fill="#00A496" fill-opacity="0.85" points="0.2594681524,0.2315722908 0.4010362072,0.0939933232 0.3075536499,0.2953735231" stroke="black" stroke-linejoin="round" stroke-width="0.005" /><polygon fill="#008370" fill-opacity="0.85" points="-0.4021211242,0.1372361583 -0.4025722327,-0.094353331 -0.3077554381,-0.2955673199 -0.1739814383,-0.3477932331 -0.0798655424,-0.221662677 -0.0797767683,0.0082039074 -0.1735138231,0.2083665259 -0.3069255026,0.2623153328" stroke="black" stroke-linejoin="round" stroke-width="0.005" /><polygon fill="#008370" fill-opacity="0.85" points="-0.2609936645,0.3263606032 -0.3069255026,0.2623153328 -0.1735138231,0.2083665259 0.0604672045,0.1957031085 0.2594681524,0.2315722908 0.3075536499,0.2953735231 0.1750393513,0.3499080275 -0.0610953679,0.3628154918" stroke="black" stroke-linejoin="round" stroke-width="0.005" /><polygon fill="#84DAD4" fill-opacity="0.85" points="0.260168423,-0.3253286765 0.3083869906,-0.2635644004 0.4014848835,-0.1370190217" stroke="black" stroke-linejoin="round" stroke-width="0.005" /><polygon fill="#008977" fill-opacity="0.85" points="-0.2609936645,0.3263606032 -0.4021211242,0.1372361583 -0.3069255026,0.2623153328" stroke="black" stroke-linejoin="round" stroke-width="0.005" /><polygon fill="#99E0DB" fill-opacity="0.85" points="-0.2617022048,-0.2335661564 -0.0612616022,-0.1982741899 0.1755152364,-0.2107699514 0.3083869906,-0.2635644004 0.260168423,-0.3253286765 0.0606300335,-0.3600520985 -0.1739814383,-0.3477932331 -0.3077554381,-0.2955673199" stroke="black" stroke-linejoin="round" stroke-width="0.005" /><polygon fill="#99E0DB" fill-opacity="0.85" points="0.0808617328,0.2244275519 0.1750393513,0.3499080275 0.3075536499,0.2953735231 0.4010362072,0.0939933232 0.4014848835,-0.1370190217 0.3083869906,-0.2635644004 0.1755152364,-0.2107699514 0.0809529394,-0.0083248599" stroke="black" stroke-linejoin="round" stroke-width="0.005" /><polygon fill="#2CBFB5" fill-opacity="0.85" points="-0.2617022048,-0.2335661564 -0.3077554381,-0.2955673199 -0.4025722327,-0.094353331" stroke="black" stroke-linejoin="round" stroke-width="0.005" /><polygon fill="#2CBFB5" fill-opacity="0.85" points="-0.0610953679,0.3628154918 0.1750393513,0.3499080275 0.0808617328,0.2244275519" stroke="black" stroke-linejoin="round" stroke-width="0.005" /><polygon fill="#4CC9C0" fill-opacity="0.85" points="-0.2617022048,-0.2335661564 -0.4025722327,-0.094353331 -0.4021211242,0.1372361583 -0.2609936645,0.3263606032 -0.0610953679,0.3628154918 0.0808617328,0.2244275519 0.0809529394,-0.0083248599 -0.0612616022,-0.1982741899" stroke="black" stroke-linejoin="round" stroke-width="0.005" /><polygon fill="#DCF4F3" fill-opacity="0.85" points="-0.0612616022,-0.1982741899 0.0809529394,-0.0083248599 0.1755152364,-0.2107699514" stroke="black" stroke-linejoin="round" stroke-width="0.005" /></g></svg>
