<?xml version="1.0" encoding="utf-8" ?>
<svg baseProfile="full" height="512" version="1.1" viewBox="-0.5 -0.5 1.0 1.0" width="512" xmlns="http://www.w3.org/2000/svg" xmlns:ev="http://www.w3.org/2001/xml-events" xmlns:xlink="http://www.w3.org/1999/xlink"><defs><clipPath id="id2"><rect height="1.0" width="1.0" x="-0.5" y="-0.5" /></clipPath></defs><g clip-path="url(#id2)" fill="#00B2A6" fill-opacity="1" stroke="black" stroke-linejoin="round" stroke-width="0.001"><polygon points="-0.00894,0.16668 -0.22685,0.19971 -0.16647,-0.01225" /><polygon points="0.21413,0.19542 0.37262,0.05665 0.31291,0.26945" /><polygon points="-0.00897,-0.3768 0.21486,-0.34873 0.37314,-0.16893 0.37262,0.05665 0.21413,0.19542 -0.00894,0.16668 -0.16647,-0.01225 -0.16671,-0.23717" /><polygon points="-0.00897,-0.3768 -0.16671,-0.23717 -0.22762,-0.34453" /><polygon points="-0.37468,0.16963 -0.37521,-0.05705 -0.31407,-0.27044 -0.22762,-0.34453 -0.16671,-0.23717 -0.16647,-0.01225 -0.22685,0.19971 -0.313,0.27556" /><polygon points="-0.21574,0.35016 -0.313,0.27556 -0.22685,0.19971 -0.00894,0.16668 0.21413,0.19542 0.31291,0.26945 0.22846,0.34581 0.00904,0.37941" /><polygon points="0.21486,-0.34873 0.31397,-0.27641 0.37314,-0.16893" /><polygon points="-0.21574,0.35016 -0.37468,0.16963 -0.313,0.27556" /><polygon points="-0.21648,-0.19756 0.00907,-0.16898 0.22924,-0.20181 0.31397,-0.27641 0.21486,-0.34873 -0.00897,-0.3768 -0.22762,-0.34453 -0.31407,-0.27044" /><polygon points="0.16853,0.23977 0.22846,0.34581 0.31291,0.26945 0.37262,0.05665 0.37314,-0.16893 0.31397,-0.27641 0.22924,-0.20181 0.16877,0.01242" /><polygon points="0.00904,0.37941 0.22846,0.34581 0.16853,0.23977" /><polygon points="-0.21648,-0.19756 -0.37521,-0.05705 -0.37468,0.16963 -0.21574,0.35016 0.00904,0.37941 0.16853,0.23977 0.16877,0.01242 0.00907,-0.16898" /><polygon points="-0.21648,-0.19756 -0.31407,-0.27044 -0.37521,-0.05705" /><polygon points="0.00907,-0.16898 0.16877,0.01242 0.22924,-0.20181" /></g></svg>
