<?xml version="1.0" encoding="utf-8" ?>
<svg baseProfile="full" height="512" version="1.1" viewBox="-0.5 -0.5 1.0 1.0" width="512" xmlns="http://www.w3.org/2000/svg" xmlns:ev="http://www.w3.org/2001/xml-events" xmlns:xlink="http://www.w3.org/1999/xlink"><defs><clipPath id="id3"><rect height="1.0" width="1.0" x="-0.5" y="-0.5" /></clipPath></defs><g clip-path="url(#id3)" fill="#00B2A6" fill-opacity="0.85" stroke="black" stroke-linejoin="round" stroke-width="0.005"><polygon points="-0.00751,0.13991 -0.19036,0.16759 -0.13973,-0.01028" /><polygon points="0.1797,0.16399 0.3126,0.04753 0.26244,0.22598" /><polygon points="-0.00753,-0.3161 0.18021,-0.29248 0.31296,-0.14169 0.3126,0.04753 0.1797,0.16399 -0.00751,0.13991 -0.13973,-0.01028 -0.1399,-0.19903" /><polygon points="-0.00753,-0.3161 -0.1399,-0.19903 -0.1909,-0.28896" /><polygon points="-0.31404,0.14218 -0.31441,-0.0478 -0.26325,-0.22668 -0.1909,-0.28896 -0.1399,-0.19903 -0.13973,-0.01028 -0.19036,0.16759 -0.2625,0.2311" /><polygon points="-0.18083,0.29349 -0.2625,0.2311 -0.19036,0.16759 -0.00751,0.13991 0.1797,0.16399 0.26244,0.22598 0.19149,0.28985 0.00757,0.31794" /><polygon points="0.18021,-0.29248 0.26318,-0.2317 0.31296,-0.14169" /><polygon points="-0.18083,0.29349 -0.31404,0.14218 -0.2625,0.2311" /><polygon points="0.14118,0.20086 0.19149,0.28985 0.26244,0.22598 0.3126,0.04753 0.31296,-0.14169 0.26318,-0.2317 0.19204,-0.16906 0.14135,0.0104" /><polygon points="-0.18135,-0.1655 0.00759,-0.14153 0.19204,-0.16906 0.26318,-0.2317 0.18021,-0.29248 -0.00753,-0.3161 -0.1909,-0.28896 -0.26325,-0.22668" /><polygon points="0.00757,0.31794 0.19149,0.28985 0.14118,0.20086" /><polygon points="-0.18135,-0.1655 -0.31441,-0.0478 -0.31404,0.14218 -0.18083,0.29349 0.00757,0.31794 0.14118,0.20086 0.14135,0.0104 0.00759,-0.14153" /><polygon points="-0.18135,-0.1655 -0.26325,-0.22668 -0.31441,-0.0478" /><polygon points="0.00759,-0.14153 0.14135,0.0104 0.19204,-0.16906" /></g></svg>
