<?xml version="1.0" encoding="utf-8" ?>
<svg baseProfile="full" height="512" version="1.1" viewBox="-0.5 -0.5 1.0 1.0" width="512" xmlns="http://www.w3.org/2000/svg" xmlns:ev="http://www.w3.org/2001/xml-events" xmlns:xlink="http://www.w3.org/1999/xlink"><defs><clipPath id="id2"><rect height="1.0" width="1.0" x="-0.5" y="-0.5" /></clipPath></defs><g clip-path="url(#id2)" fill="#00B2A6" fill-opacity="0.85" stroke="black" stroke-linejoin="round" stroke-width="0.005"><polygon fill="#00002A" points="-0.0089446,0.1666847 -0.2268494,0.1997104 -0.1664743,-0.0122519" /><polygon fill="#584579" points="0.2141349,0.1954205 0.3726211,0.0566549 0.3129104,0.269446" /><polygon fill="#46316A" points="-0.0089748,-0.3767966 0.2148597,-0.3487256 0.3731436,-0.1689324 0.3726211,0.0566549 0.2141349,0.1954205 -0.0089446,0.1666847 -0.1664743,-0.0122519 -0.1667069,-0.2371744" /><polygon fill="#584579" points="-0.0089748,-0.3767966 -0.1667069,-0.2371744 -0.2276174,-0.3445349" /><polygon fill="#1B0248" points="-0.3746793,0.1696276 -0.3752075,-0.0570482 -0.3140666,-0.2704416 -0.2276174,-0.3445349 -0.1667069,-0.2371744 -0.1664743,-0.0122519 -0.2268494,0.1997104 -0.3130029,0.275557" /><polygon fill="#1B0248" points="-0.215744,0.3501608 -0.3130029,0.275557 -0.2268494,0.1997104 -0.0089446,0.1666847 0.2141349,0.1954205 0.3129104,0.269446 0.2284585,0.345808 0.0090371,0.3794121" /><polygon fill="#BAB3C8" points="0.2148597,-0.3487256 0.3139734,-0.2764115 0.3731436,-0.1689324" /><polygon fill="#270E51" points="-0.215744,0.3501608 -0.3746793,0.1696276 -0.3130029,0.275557" /><polygon fill="#C6BFD1" points="-0.2164798,-0.1975605 0.009068,-0.1689843 0.2292375,-0.2018129 0.3139734,-0.2764115 0.2148597,-0.3487256 -0.0089748,-0.3767966 -0.2276174,-0.3445349 -0.3140666,-0.2704416" /><polygon fill="#C6BFD1" points="0.1685325,0.2397717 0.2284585,0.345808 0.3129104,0.269446 0.3726211,0.0566549 0.3731436,-0.1689324 0.3139734,-0.2764115 0.2292375,-0.2018129 0.1687709,0.0124209" /><polygon fill="#897CA0" points="0.0090371,0.3794121 0.2284585,0.345808 0.1685325,0.2397717" /><polygon fill="#9B90AF" points="-0.2164798,-0.1975605 -0.3752075,-0.0570482 -0.3746793,0.1696276 -0.215744,0.3501608 0.0090371,0.3794121 0.1685325,0.2397717 0.1687709,0.0124209 0.009068,-0.1689843" /><polygon fill="#897CA0" points="-0.2164798,-0.1975605 -0.3140666,-0.2704416 -0.3752075,-0.0570482" /><polygon fill="#EBE9EF" points="0.009068,-0.1689843 0.1687709,0.0124209 0.2292375,-0.2018129" /></g></svg>
