<?xml version="1.0" encoding="utf-8" ?>
<svg baseProfile="full" height="512" version="1.1" viewBox="-0.5 -0.5 1.0 1.0" width="512" xmlns="http://www.w3.org/2000/svg" xmlns:ev="http://www.w3.org/2001/xml-events" xmlns:xlink="http://www.w3.org/1999/xlink"><defs><clipPath id="id1"><rect height="1.0" width="1.0" x="-0.5" y="-0.5" /></clipPath></defs><g clip-path="url(#id1)" fill="#C76F96" fill-opacity="0.85" stroke="black" stroke-linejoin="round" stroke-width="0.005"><polygon fill="#C2628D" fill-opacity="0.85" points="0.0,0.1075650148 -0.1833370552,-0.191798324 0.1833370552,-0.191798324" stroke="black" stroke-linejoin="round" stroke-width="0.005" /><polygon fill="#A31453" fill-opacity="0.85" points="0.0,0.1075650148 -0.2972045881,0.1401250808 -0.1833370552,-0.191798324" stroke="black" stroke-linejoin="round" stroke-width="0.005" /><polygon fill="#CA779C" fill-opacity="0.85" points="0.0,0.1075650148 0.1833370552,-0.191798324 0.2972045881,0.1401250808" stroke="black" stroke-linejoin="round" stroke-width="0.005" /><polygon fill="#B0366C" fill-opacity="0.85" points="0.0,0.1075650148 0.2972045881,0.1401250808 0.0,0.3458912351" stroke="black" stroke-linejoin="round" stroke-width="0.005" /><polygon fill="#98003F" fill-opacity="0.85" points="0.0,0.1075650148 0.0,0.3458912351 -0.2972045881,0.1401250808" stroke="black" stroke-linejoin="round" stroke-width="0.005" /><polygon fill="#DCA5BE" fill-opacity="0.85" points="0.1833370552,-0.191798324 -0.1833370552,-0.191798324 0.0,-0.34652139" stroke="black" stroke-linejoin="round" stroke-width="0.005" /><polygon fill="#AA2661" fill-opacity="0.85" points="-0.2972045881,0.1401250808 -0.298441825,-0.1407084093 -0.1833370552,-0.191798324" stroke="black" stroke-linejoin="round" stroke-width="0.005" /><polygon fill="#E9C7D6" fill-opacity="0.85" points="0.298441825,-0.1407084093 0.2972045881,0.1401250808 0.1833370552,-0.191798324" stroke="black" stroke-linejoin="round" stroke-width="0.005" /><polygon fill="#F4E4EB" fill-opacity="0.85" points="0.298441825,-0.1407084093 0.1833370552,-0.191798324 0.0,-0.34652139" stroke="black" stroke-linejoin="round" stroke-width="0.005" /><polygon fill="#CD80A2" fill-opacity="0.85" points="-0.298441825,-0.1407084093 0.0,-0.34652139 -0.1833370552,-0.191798324" stroke="black" stroke-linejoin="round" stroke-width="0.005" /><polygon fill="#C05D89" fill-opacity="0.85" points="0.2972045881,0.1401250808 0.1847968739,0.1933255154 0.0,0.3458912351" stroke="black" stroke-linejoin="round" stroke-width="0.005" /><polygon fill="#990040" fill-opacity="0.85" points="-0.2972045881,0.1401250808 0.0,0.3458912351 -0.1847968739,0.1933255154" stroke="black" stroke-linejoin="round" stroke-width="0.005" /><polygon fill="#E3B7CA" fill-opacity="0.85" points="0.298441825,-0.1407084093 0.1847968739,0.1933255154 0.2972045881,0.1401250808" stroke="black" stroke-linejoin="round" stroke-width="0.005" /><polygon fill="#A41655" fill-opacity="0.85" points="-0.2972045881,0.1401250808 -0.1847968739,0.1933255154 -0.298441825,-0.1407084093" stroke="black" stroke-linejoin="round" stroke-width="0.005" /><polygon fill="#B1386D" fill-opacity="0.85" points="-0.1847968739,0.1933255154 0.0,0.3458912351 0.1847968739,0.1933255154" stroke="black" stroke-linejoin="round" stroke-width="0.005" /><polygon fill="#F5E5EC" fill-opacity="0.85" points="0.0,-0.1088225856 0.298441825,-0.1407084093 0.0,-0.34652139" stroke="black" stroke-linejoin="round" stroke-width="0.005" /><polygon fill="#DDA7BF" fill-opacity="0.85" points="0.0,-0.1088225856 0.0,-0.34652139 -0.298441825,-0.1407084093" stroke="black" stroke-linejoin="round" stroke-width="0.005" /><polygon fill="#C3668F" fill-opacity="0.85" points="0.0,-0.1088225856 -0.298441825,-0.1407084093 -0.1847968739,0.1933255154" stroke="black" stroke-linejoin="round" stroke-width="0.005" /><polygon fill="#EAC9D8" fill-opacity="0.85" points="0.0,-0.1088225856 0.1847968739,0.1933255154 0.298441825,-0.1407084093" stroke="black" stroke-linejoin="round" stroke-width="0.005" /><polygon fill="#CB7B9E" fill-opacity="0.85" points="0.0,-0.1088225856 -0.1847968739,0.1933255154 0.1847968739,0.1933255154" stroke="black" stroke-linejoin="round" stroke-width="0.005" /></g></svg>