<?xml version="1.0" encoding="utf-8" ?>
<svg baseProfile="full" height="512" version="1.1" viewBox="-0.5 -0.5 1.0 1.0" width="512" xmlns="http://www.w3.org/2000/svg" xmlns:ev="http://www.w3.org/2001/xml-events" xmlns:xlink="http://www.w3.org/1999/xlink"><defs><clipPath id="id2"><rect height="1.0" width="1.0" x="-0.5" y="-0.5" /></clipPath></defs><g clip-path="url(#id2)" fill="#00B2A6" fill-opacity="0.85" stroke="black" stroke-linejoin="round" stroke-width="0.005"><polygon points="0.06901,0.03984 -0.06901,0.03984 0.0,-0.07969" /><polygon points="0.16684,0.09632 0.23641,0.05654 0.16717,0.17647" /><polygon points="-0.16717,0.17647 -0.16684,0.09632 -0.06901,0.03984 0.06901,0.03984 0.16684,0.09632 0.16717,0.17647 0.06934,0.23333 -0.06934,0.23333" /><polygon points="-0.23641,0.05654 -0.23674,-0.05662 -0.1674,-0.17672 -0.06924,-0.23301 0.0,-0.19265 0.0,-0.07969 -0.06901,0.03984 -0.16684,0.09632" /><polygon points="0.06924,-0.23301 0.1674,-0.17672 0.23674,-0.05662 0.23641,0.05654 0.16684,0.09632 0.06901,0.03984 0.0,-0.07969 0.0,-0.19265" /><polygon points="0.06924,-0.23301 0.0,-0.19265 -0.06924,-0.23301" /><polygon points="-0.16717,0.17647 -0.23641,0.05654 -0.16684,0.09632" /><polygon points="-0.06934,0.23333 0.06934,0.23333 0.0,0.19368" /><polygon points="0.1674,-0.17672 0.16773,-0.09684 0.23674,-0.05662" /><polygon points="-0.16773,-0.09684 -0.23674,-0.05662 -0.23641,0.05654 -0.16717,0.17647 -0.06934,0.23333 0.0,0.19368 0.0,0.08034 -0.06957,-0.04017" /><polygon points="-0.16773,-0.09684 -0.06957,-0.04017 0.06957,-0.04017 0.16773,-0.09684 0.1674,-0.17672 0.06924,-0.23301 -0.06924,-0.23301 -0.1674,-0.17672" /><polygon points="0.0,0.19368 0.06934,0.23333 0.16717,0.17647 0.23641,0.05654 0.23674,-0.05662 0.16773,-0.09684 0.06957,-0.04017 0.0,0.08034" /><polygon points="-0.16773,-0.09684 -0.1674,-0.17672 -0.23674,-0.05662" /><polygon points="-0.06957,-0.04017 0.0,0.08034 0.06957,-0.04017" /></g></svg>
