<?xml version="1.0" encoding="utf-8" ?>
<svg baseProfile="full" height="512" version="1.1" viewBox="-0.5 -0.5 1.0 1.0" width="512" xmlns="http://www.w3.org/2000/svg" xmlns:ev="http://www.w3.org/2001/xml-events" xmlns:xlink="http://www.w3.org/1999/xlink"><defs><clipPath id="id1"><rect height="1.0" width="1.0" x="-0.5" y="-0.5" /></clipPath></defs><g clip-path="url(#id1)" fill="#00B2A6" fill-opacity="1" stroke="black" stroke-linejoin="round" stroke-width="0.001"><polygon points="0.11918,0.06881 -0.11918,0.06881 0.0,-0.13761" /><polygon points="0.28841,0.16651 0.40927,0.09787 0.28939,0.3055" /><polygon points="-0.40927,0.09787 -0.41026,-0.09811 -0.29009,-0.30624 -0.11987,-0.40337 0.0,-0.33303 0.0,-0.13761 -0.11918,0.06881 -0.28841,0.16651" /><polygon points="0.11987,-0.40337 0.29009,-0.30624 0.41026,-0.09811 0.40927,0.09787 0.28841,0.16651 0.11918,0.06881 0.0,-0.13761 0.0,-0.33303" /><polygon points="-0.28939,0.3055 -0.28841,0.16651 -0.11918,0.06881 0.11918,0.06881 0.28841,0.16651 0.28939,0.3055 0.12016,0.40435 -0.12016,0.40435" /><polygon points="0.11987,-0.40337 0.0,-0.33303 -0.11987,-0.40337" /><polygon points="-0.28939,0.3055 -0.40927,0.09787 -0.28841,0.16651" /><polygon points="0.29009,-0.30624 0.29109,-0.16806 0.41026,-0.09811" /><polygon points="-0.12016,0.40435 0.12016,0.40435 0.0,0.33612" /><polygon points="-0.29109,-0.16806 -0.41026,-0.09811 -0.40927,0.09787 -0.28939,0.3055 -0.12016,0.40435 0.0,0.33612 0.0,0.13957 -0.12087,-0.06978" /><polygon points="-0.29109,-0.16806 -0.12087,-0.06978 0.12087,-0.06978 0.29109,-0.16806 0.29009,-0.30624 0.11987,-0.40337 -0.11987,-0.40337 -0.29009,-0.30624" /><polygon points="0.0,0.33612 0.12016,0.40435 0.28939,0.3055 0.40927,0.09787 0.41026,-0.09811 0.29109,-0.16806 0.12087,-0.06978 0.0,0.13957" /><polygon points="-0.29109,-0.16806 -0.29009,-0.30624 -0.41026,-0.09811" /><polygon points="-0.12087,-0.06978 0.0,0.13957 0.12087,-0.06978" /></g></svg>
