<?xml version="1.0" encoding="utf-8" ?>
<svg baseProfile="full" height="512" version="1.1" viewBox="-0.5 -0.5 1.0 1.0" width="512" xmlns="http://www.w3.org/2000/svg" xmlns:ev="http://www.w3.org/2001/xml-events" xmlns:xlink="http://www.w3.org/1999/xlink"><defs><clipPath id="id1"><rect height="1.0" width="1.0" x="-0.5" y="-0.5" /></clipPath></defs><g clip-path="url(#id1)" fill="#00B2A6" fill-opacity="0.85" stroke="black" stroke-linejoin="round" stroke-width="0.005"><polygon fill="#00002A" points="0.1191759,0.0688062 -0.1191759,0.0688062 0.0,-0.1376124" /><polygon fill="#584579" points="0.2884087,0.1665129 0.4092651,0.0978742 0.2893941,0.3054968" /><polygon fill="#1B0248" points="-0.4092651,0.0978742 -0.4102562,-0.0981113 -0.2900949,-0.3062366 -0.119871,-0.403371 0.0,-0.3330257 0.0,-0.1376124 -0.1191759,0.0688062 -0.2884087,0.1665129" /><polygon fill="#1B0248" points="-0.2893941,0.3054968 -0.2884087,0.1665129 -0.1191759,0.0688062 0.1191759,0.0688062 0.2884087,0.1665129 0.2893941,0.3054968 0.1201613,0.4043479 -0.1201613,0.4043479" /><polygon fill="#46316A" points="0.119871,-0.403371 0.2900949,-0.3062366 0.4102562,-0.0981113 0.4092651,0.0978742 0.2884087,0.1665129 0.1191759,0.0688062 0.0,-0.1376124 0.0,-0.3330257" /><polygon fill="#584579" points="0.119871,-0.403371 0.0,-0.3330257 -0.119871,-0.403371" /><polygon fill="#270E51" points="-0.2893941,0.3054968 -0.4092651,0.0978742 -0.2884087,0.1665129" /><polygon fill="#897CA0" points="-0.1201613,0.4043479 0.1201613,0.4043479 0.0,0.3361239" /><polygon fill="#BAB3C8" points="0.2900949,-0.3062366 0.2910919,-0.168062 0.4102562,-0.0981113" /><polygon fill="#9B90AF" points="-0.2910919,-0.168062 -0.4102562,-0.0981113 -0.4092651,0.0978742 -0.2893941,0.3054968 -0.1201613,0.4043479 0.0,0.3361239 0.0,0.1395662 -0.1208679,-0.0697831" /><polygon fill="#C6BFD1" points="-0.2910919,-0.168062 -0.1208679,-0.0697831 0.1208679,-0.0697831 0.2910919,-0.168062 0.2900949,-0.3062366 0.119871,-0.403371 -0.119871,-0.403371 -0.2900949,-0.3062366" /><polygon fill="#C6BFD1" points="0.0,0.3361239 0.1201613,0.4043479 0.2893941,0.3054968 0.4092651,0.0978742 0.4102562,-0.0981113 0.2910919,-0.168062 0.1208679,-0.0697831 0.0,0.1395662" /><polygon fill="#897CA0" points="-0.2910919,-0.168062 -0.2900949,-0.3062366 -0.4102562,-0.0981113" /><polygon fill="#EBE9EF" points="-0.1208679,-0.0697831 0.0,0.1395662 0.1208679,-0.0697831" /></g></svg>
