<?xml version="1.0" encoding="utf-8" ?>
<svg baseProfile="full" height="512" version="1.1" viewBox="-0.5 -0.5 1.0 1.0" width="512" xmlns="http://www.w3.org/2000/svg" xmlns:ev="http://www.w3.org/2001/xml-events" xmlns:xlink="http://www.w3.org/1999/xlink"><defs><clipPath id="id15"><rect height="1.0" width="1.0" x="-0.5" y="-0.5" /></clipPath></defs><g clip-path="url(#id15)" fill="#00B2A6" fill-opacity="0.85" stroke="black" stroke-linejoin="round" stroke-width="0.005"><polygon points="0.0404885,0.1310416 -0.1161536,0.1394847 -0.0534319,0.0054947" /><polygon points="0.0405614,-0.2408743 0.1739236,-0.2174835 0.2683238,-0.0915737 0.2681233,0.0628417 0.1736104,0.1549452 0.0404885,0.1310416 -0.0534319,0.0054947 -0.0534717,-0.148408" /><polygon points="0.0405614,-0.2408743 -0.0534717,-0.148408 -0.1163629,-0.2326124" /><polygon points="0.1736104,0.1549452 0.2681233,0.0628417 0.2055153,0.1973762" /><polygon points="-0.2686078,0.0916707 -0.2688091,-0.0630024 -0.2056054,-0.1974627 -0.1163629,-0.2326124 -0.0534717,-0.148408 -0.0534319,0.0054947 -0.1161536,0.1394847 -0.2052346,0.1754047" /><polygon points="-0.174292,0.2179441 -0.2052346,0.1754047 -0.1161536,0.1394847 0.0404885,0.1310416 0.1736104,0.1549452 0.2055153,0.1973762 0.1168352,0.2335565 -0.0407691,0.242108" /><polygon points="0.1739236,-0.2174835 0.2058871,-0.1759623 0.2683238,-0.0915737" /><polygon points="-0.174292,0.2179441 -0.2686078,0.0916707 -0.2052346,0.1754047" /><polygon points="-0.1746077,-0.1558353 -0.0408431,-0.1321894 0.117047,-0.1405576 0.2058871,-0.1759623 0.1739236,-0.2174835 0.0405614,-0.2408743 -0.1163629,-0.2326124 -0.2056054,-0.1974627" /><polygon points="0.0539164,0.1496423 0.1168352,0.2335565 0.2055153,0.1973762 0.2681233,0.0628417 0.2683238,-0.0915737 0.2058871,-0.1759623 0.117047,-0.1405576 0.053957,-0.0055487" /><polygon points="-0.1746077,-0.1558353 -0.2056054,-0.1974627 -0.2688091,-0.0630024" /><polygon points="-0.0407691,0.242108 0.1168352,0.2335565 0.0539164,0.1496423" /><polygon points="-0.1746077,-0.1558353 -0.2688091,-0.0630024 -0.2686078,0.0916707 -0.174292,0.2179441 -0.0407691,0.242108 0.0539164,0.1496423 0.053957,-0.0055487 -0.0408431,-0.1321894" /><polygon points="-0.0408431,-0.1321894 0.053957,-0.0055487 0.117047,-0.1405576" /></g></svg>
