<?xml version="1.0" encoding="utf-8" ?>
<svg baseProfile="full" height="512" version="1.1" viewBox="-0.5 -0.5 1.0 1.0" width="512" xmlns="http://www.w3.org/2000/svg" xmlns:ev="http://www.w3.org/2001/xml-events" xmlns:xlink="http://www.w3.org/1999/xlink"><defs><clipPath id="id3"><rect height="1.0" width="1.0" x="-0.5" y="-0.5" /></clipPath></defs><g clip-path="url(#id3)" fill="#00B2A6" fill-opacity="1" stroke="black" stroke-linejoin="round" stroke-width="0.001"><polygon points="0.04049,0.13104 -0.11615,0.13948 -0.05343,0.00549" /><polygon points="0.04056,-0.24087 0.17392,-0.21748 0.26832,-0.09157 0.26812,0.06284 0.17361,0.15495 0.04049,0.13104 -0.05343,0.00549 -0.05347,-0.14841" /><polygon points="0.04056,-0.24087 -0.05347,-0.14841 -0.11636,-0.23261" /><polygon points="0.17361,0.15495 0.26812,0.06284 0.20552,0.19738" /><polygon points="-0.26861,0.09167 -0.26881,-0.063 -0.20561,-0.19746 -0.11636,-0.23261 -0.05347,-0.14841 -0.05343,0.00549 -0.11615,0.13948 -0.20523,0.1754" /><polygon points="-0.17429,0.21794 -0.20523,0.1754 -0.11615,0.13948 0.04049,0.13104 0.17361,0.15495 0.20552,0.19738 0.11684,0.23356 -0.04077,0.24211" /><polygon points="0.17392,-0.21748 0.20589,-0.17596 0.26832,-0.09157" /><polygon points="-0.17429,0.21794 -0.26861,0.09167 -0.20523,0.1754" /><polygon points="-0.17461,-0.15584 -0.04084,-0.13219 0.11705,-0.14056 0.20589,-0.17596 0.17392,-0.21748 0.04056,-0.24087 -0.11636,-0.23261 -0.20561,-0.19746" /><polygon points="0.05392,0.14964 0.11684,0.23356 0.20552,0.19738 0.26812,0.06284 0.26832,-0.09157 0.20589,-0.17596 0.11705,-0.14056 0.05396,-0.00555" /><polygon points="-0.17461,-0.15584 -0.20561,-0.19746 -0.26881,-0.063" /><polygon points="-0.04077,0.24211 0.11684,0.23356 0.05392,0.14964" /><polygon points="-0.17461,-0.15584 -0.26881,-0.063 -0.26861,0.09167 -0.17429,0.21794 -0.04077,0.24211 0.05392,0.14964 0.05396,-0.00555 -0.04084,-0.13219" /><polygon points="-0.04084,-0.13219 0.05396,-0.00555 0.11705,-0.14056" /></g></svg>
