<?xml version="1.0" encoding="utf-8" ?>
<svg baseProfile="full" height="512" version="1.1" viewBox="-0.5 -0.5 1.0 1.0" width="512" xmlns="http://www.w3.org/2000/svg" xmlns:ev="http://www.w3.org/2001/xml-events" xmlns:xlink="http://www.w3.org/1999/xlink"><defs><clipPath id="id3"><rect height="1.0" width="1.0" x="-0.5" y="-0.5" /></clipPath></defs><g clip-path="url(#id3)" fill="#00B2A6" fill-opacity="0.85" stroke="black" stroke-linejoin="round" stroke-width="0.005"><polygon fill="#00002A" points="0.0604672,0.1957031 -0.1735138,0.2083665 -0.0797768,0.0082039" /><polygon fill="#46316A" points="0.06063,-0.3600521 0.2601684,-0.3253287 0.4014849,-0.137019 0.4010362,0.0939933 0.2594682,0.2315723 0.0604672,0.1957031 -0.0797768,0.0082039 -0.0798655,-0.2216627" /><polygon fill="#584579" points="0.06063,-0.3600521 -0.0798655,-0.2216627 -0.1739814,-0.3477932" /><polygon fill="#584579" points="0.2594682,0.2315723 0.4010362,0.0939933 0.3075536,0.2953735" /><polygon fill="#1B0248" points="-0.4021211,0.1372362 -0.4025722,-0.0943533 -0.3077554,-0.2955673 -0.1739814,-0.3477932 -0.0798655,-0.2216627 -0.0797768,0.0082039 -0.1735138,0.2083665 -0.3069255,0.2623153" /><polygon fill="#1B0248" points="-0.2609937,0.3263606 -0.3069255,0.2623153 -0.1735138,0.2083665 0.0604672,0.1957031 0.2594682,0.2315723 0.3075536,0.2953735 0.1750394,0.349908 -0.0610954,0.3628155" /><polygon fill="#BAB3C8" points="0.2601684,-0.3253287 0.308387,-0.2635644 0.4014849,-0.137019" /><polygon fill="#270E51" points="-0.2609937,0.3263606 -0.4021211,0.1372362 -0.3069255,0.2623153" /><polygon fill="#C6BFD1" points="-0.2617022,-0.2335662 -0.0612616,-0.1982742 0.1755152,-0.21077 0.308387,-0.2635644 0.2601684,-0.3253287 0.06063,-0.3600521 -0.1739814,-0.3477932 -0.3077554,-0.2955673" /><polygon fill="#C6BFD1" points="0.0808617,0.2244276 0.1750394,0.349908 0.3075536,0.2953735 0.4010362,0.0939933 0.4014849,-0.137019 0.308387,-0.2635644 0.1755152,-0.21077 0.0809529,-0.0083249" /><polygon fill="#897CA0" points="-0.2617022,-0.2335662 -0.3077554,-0.2955673 -0.4025722,-0.0943533" /><polygon fill="#897CA0" points="-0.0610954,0.3628155 0.1750394,0.349908 0.0808617,0.2244276" /><polygon fill="#9B90AF" points="-0.2617022,-0.2335662 -0.4025722,-0.0943533 -0.4021211,0.1372362 -0.2609937,0.3263606 -0.0610954,0.3628155 0.0808617,0.2244276 0.0809529,-0.0083249 -0.0612616,-0.1982742" /><polygon fill="#EBE9EF" points="-0.0612616,-0.1982742 0.0809529,-0.0083249 0.1755152,-0.21077" /></g></svg>
