<?xml version="1.0" encoding="utf-8" ?>
<svg baseProfile="full" height="512" version="1.1" viewBox="-0.5 -0.5 1.0 1.0" width="512" xmlns="http://www.w3.org/2000/svg" xmlns:ev="http://www.w3.org/2001/xml-events" xmlns:xlink="http://www.w3.org/1999/xlink"><defs><clipPath id="id1"><rect height="1.0" width="1.0" x="-0.5" y="-0.5" /></clipPath></defs><g clip-path="url(#id1)" fill="#71618D" fill-opacity="0.85" stroke="black" stroke-linejoin="round" stroke-width="0.005"><polygon fill="#00002A" fill-opacity="0.85" points="-0.0166734,0.1364494 -0.1779243,0.1609386 -0.1374328,0.0029449" stroke="black" stroke-linejoin="round" stroke-width="0.005" /><polygon fill="#584579" fill-opacity="0.85" points="0.1542523,0.1537591 0.2754957,0.0444842 0.2354665,0.2028964" stroke="black" stroke-linejoin="round" stroke-width="0.005" /><polygon fill="#46316A" fill-opacity="0.85" points="-0.0167116,-0.2785632 0.1546063,-0.2616082 0.2757575,-0.1276705 0.2754957,0.0444842 0.1542523,0.1537591 -0.0166734,0.1364494 -0.1374328,0.0029449 -0.1375631,-0.168855" stroke="black" stroke-linejoin="round" stroke-width="0.005" /><polygon fill="#584579" fill-opacity="0.85" points="-0.0167116,-0.2785632 -0.1375631,-0.168855 -0.1783327,-0.2545758" stroke="black" stroke-linejoin="round" stroke-width="0.005" /><polygon fill="#BAB3C8" fill-opacity="0.85" points="0.1546063,-0.2616082 0.2360082,-0.2134775 0.2757575,-0.1276705" stroke="black" stroke-linejoin="round" stroke-width="0.005" /><polygon fill="#1B0248" fill-opacity="0.85" points="-0.2767646,0.1281367 -0.2770288,-0.0447317 -0.23614,-0.2034768 -0.1783327,-0.2545758 -0.1375631,-0.168855 -0.1374328,0.0029449 -0.1779243,0.1609386 -0.2355977,0.2131061" stroke="black" stroke-linejoin="round" stroke-width="0.005" /><polygon fill="#1B0248" fill-opacity="0.85" points="-0.1551709,0.2625636 -0.2355977,0.2131061 -0.1779243,0.1609386 -0.0166734,0.1364494 0.1542523,0.1537591 0.2354665,0.2028964 0.1788429,0.2553041 0.0168046,0.2801134" stroke="black" stroke-linejoin="round" stroke-width="0.005" /><polygon fill="#C6BFD1" fill-opacity="0.85" points="-0.155529,-0.1550317 0.0168434,-0.137841 0.1792555,-0.1621427 0.2360082,-0.2134775 0.1546063,-0.2616082 -0.0167116,-0.2785632 -0.1783327,-0.2545758 -0.23614,-0.2034768" stroke="black" stroke-linejoin="round" stroke-width="0.005" /><polygon fill="#C6BFD1" fill-opacity="0.85" points="0.1387017,0.1702526 0.1788429,0.2553041 0.2354665,0.2028964 0.2754957,0.0444842 0.2757575,-0.1276705 0.2360082,-0.2134775 0.1792555,-0.1621427 0.1388344,-0.0029749" stroke="black" stroke-linejoin="round" stroke-width="0.005" /><polygon fill="#270E51" fill-opacity="0.85" points="-0.1551709,0.2625636 -0.2767646,0.1281367 -0.2355977,0.2131061" stroke="black" stroke-linejoin="round" stroke-width="0.005" /><polygon fill="#897CA0" fill-opacity="0.85" points="0.0168046,0.2801134 0.1788429,0.2553041 0.1387017,0.1702526" stroke="black" stroke-linejoin="round" stroke-width="0.005" /><polygon fill="#9B90AF" fill-opacity="0.85" points="-0.155529,-0.1550317 -0.2770288,-0.0447317 -0.2767646,0.1281367 -0.1551709,0.2625636 0.0168046,0.2801134 0.1387017,0.1702526 0.1388344,-0.0029749 0.0168434,-0.137841" stroke="black" stroke-linejoin="round" stroke-width="0.005" /><polygon fill="#897CA0" fill-opacity="0.85" points="-0.155529,-0.1550317 -0.23614,-0.2034768 -0.2770288,-0.0447317" stroke="black" stroke-linejoin="round" stroke-width="0.005" /><polygon fill="#EBE9EF" fill-opacity="0.85" points="0.0168434,-0.137841 0.1388344,-0.0029749 0.1792555,-0.1621427" stroke="black" stroke-linejoin="round" stroke-width="0.005" /></g></svg>
